<?xml version="1.0" encoding="UTF-8" standalone="no"?>
<svg
   height="16px"
   viewBox="0 0 16 16"
   width="16px"
   version="1.1"
   id="svg4"
   sodipodi:docname="io.github.t00m.MiAZ-res-plugins-system.svg"
   inkscape:version="1.2.2 (b0a8486541, 2022-12-01)"
   xmlns:inkscape="http://www.inkscape.org/namespaces/inkscape"
   xmlns:sodipodi="http://sodipodi.sourceforge.net/DTD/sodipodi-0.dtd"
   xmlns="http://www.w3.org/2000/svg"
   xmlns:svg="http://www.w3.org/2000/svg">
  <defs
     id="defs8" />
  <sodipodi:namedview
     id="namedview6"
     pagecolor="#ffffff"
     bordercolor="#000000"
     borderopacity="0.25"
     inkscape:showpageshadow="2"
     inkscape:pageopacity="0.0"
     inkscape:pagecheckerboard="0"
     inkscape:deskcolor="#d1d1d1"
     showgrid="false"
     inkscape:zoom="30.449786"
     inkscape:cx="7.6191012"
     inkscape:cy="7.3399531"
     inkscape:window-width="1920"
     inkscape:window-height="886"
     inkscape:window-x="0"
     inkscape:window-y="0"
     inkscape:window-maximized="1"
     inkscape:current-layer="svg4" />
  <path
     d="m 7.015625 0 c -1.109375 0 -2 0.890625 -2 2 v 1 h -3.015625 c -1.109375 0 -2 0.890625 -2 2 v 2 h 1.015625 c 1.105469 0 2 0.890625 2 2 s -0.894531 2 -2 2 h -1.015625 v 2.988281 c 0 1.105469 0.890625 2 2 2 h 3.015625 v -0.988281 c 0 -1.109375 0.890625 -2 2 -2 c 1.105469 0 2 0.890625 2 2 v 0.988281 h 2 c 1.105469 0 2 -0.894531 2 -2 v -2.988281 h 1 c 1.105469 0 2 -0.890625 2 -2 s -0.894531 -2 -2 -2 h -1 v -2 c 0 -1.109375 -0.894531 -2 -2 -2 h -2 v -1 c 0 -1.109375 -0.894531 -2 -2 -2 z m 0 0"
     fill="#2e3436"
     id="path2"
     style="fill:#c93232;fill-opacity:1" />
</svg>
