<?xml version="1.0" encoding="UTF-8" standalone="no"?>
<!-- Created with Sodipodi ("http://www.sodipodi.com/") -->

<svg
   id="svg548"
   sodipodi:version="0.32"
   width="90"
   height="90"
   sodipodi:docname="document-import.svg"
   inkscape:version="1.2.2 (b0a8486541, 2022-12-01)"
   inkscape:output_extension="org.inkscape.output.svg.inkscape"
   version="1.0"
   xmlns:inkscape="http://www.inkscape.org/namespaces/inkscape"
   xmlns:sodipodi="http://sodipodi.sourceforge.net/DTD/sodipodi-0.dtd"
   xmlns:xlink="http://www.w3.org/1999/xlink"
   xmlns="http://www.w3.org/2000/svg"
   xmlns:svg="http://www.w3.org/2000/svg"
   xmlns:rdf="http://www.w3.org/1999/02/22-rdf-syntax-ns#"
   xmlns:cc="http://creativecommons.org/ns#"
   xmlns:dc="http://purl.org/dc/elements/1.1/">
  <metadata
     id="metadata36">
    <rdf:RDF>
      <cc:Work
         rdf:about="">
        <dc:format>image/svg+xml</dc:format>
        <dc:type
           rdf:resource="http://purl.org/dc/dcmitype/StillImage" />
      </cc:Work>
    </rdf:RDF>
  </metadata>
  <defs
     id="defs550">
    <defs
       id="defs848">
      <linearGradient
         x1="0"
         y1="0"
         x2="1"
         y2="0"
         id="linearGradient556"
         gradientUnits="objectBoundingBox"
         spreadMethod="pad">
        <stop
           style="stop-color:#ff8700;stop-opacity:1;"
           offset="0.00000000"
           id="stop557" />
        <stop
           style="stop-color:#ffff8d;stop-opacity:0;"
           offset="1.00000000"
           id="stop558" />
      </linearGradient>
      <linearGradient
         x1="0"
         y1="0"
         x2="1"
         y2="0"
         id="linearGradient852"
         xlink:href="#linearGradient556"
         gradientUnits="objectBoundingBox"
         spreadMethod="pad" />
    </defs>
    <defs
       id="defs606">
      <linearGradient
         id="linearGradient612">
        <stop
           style="stop-color:#7fa8e3;stop-opacity:0.741176;"
           offset="0.000000"
           id="stop613" />
        <stop
           style="stop-color:#ffffff;stop-opacity:0;"
           offset="1.000000"
           id="stop614" />
      </linearGradient>
      <linearGradient
         xlink:href="#linearGradient612"
         id="linearGradient615"
         x1="50.643887"
         y1="5.3679295"
         x2="35.752094"
         y2="68.044357"
         gradientUnits="userSpaceOnUse"
         spreadMethod="pad" />
      <sodipodi:namedview
         id="namedview833"
         inkscape:zoom="4.828125"
         inkscape:cx="43.391586"
         inkscape:cy="44.323625"
         inkscape:window-width="1920"
         inkscape:window-height="979"
         inkscape:window-x="0"
         inkscape:window-y="0"
         pagecolor="#ffffff"
         bordercolor="#000000"
         borderopacity="0.25"
         inkscape:showpageshadow="2"
         inkscape:pageopacity="0.0"
         inkscape:pagecheckerboard="0"
         inkscape:deskcolor="#d1d1d1"
         showgrid="false"
         inkscape:window-maximized="1"
         inkscape:current-layer="svg548" />
      <defs
         id="defs1099">
        <linearGradient
           x1="0"
           y1="0"
           x2="1"
           y2="0"
           id="linearGradient1100"
           gradientUnits="objectBoundingBox"
           spreadMethod="pad">
          <stop
             style="stop-color:#ff8700;stop-opacity:1;"
             offset="0.00000000"
             id="stop1101" />
          <stop
             style="stop-color:#ffff8d;stop-opacity:0;"
             offset="1.00000000"
             id="stop1102" />
        </linearGradient>
        <linearGradient
           x1="0"
           y1="0"
           x2="1"
           y2="0"
           id="linearGradient1103"
           xlink:href="#linearGradient556"
           gradientUnits="objectBoundingBox"
           spreadMethod="pad" />
      </defs>
    </defs>
    <linearGradient
       inkscape:collect="always"
       xlink:href="#linearGradient612"
       id="linearGradient1138"
       gradientUnits="userSpaceOnUse"
       spreadMethod="pad"
       x1="50.643887"
       y1="5.3679295"
       x2="35.752094"
       y2="68.044357"
       gradientTransform="matrix(0.988665,0,0,0.988665,-2.2043935,0.5222842)" />
  </defs>
  <sodipodi:namedview
     id="base"
     inkscape:zoom="7.1299932"
     inkscape:cx="17.060014"
     inkscape:cy="20.727225"
     inkscape:window-width="830"
     inkscape:window-height="686"
     inkscape:window-x="184"
     inkscape:window-y="43"
     inkscape:current-layer="svg548"
     width="90px"
     height="90px" />
  <path
     style="fill:#3d4e67;fill-opacity:1;fill-rule:evenodd;stroke:none;stroke-width:1pt;stroke-linecap:butt;stroke-linejoin:miter;stroke-opacity:1"
     d="M 17.751663,88.655222 C 14.172414,88.602773 8.1718565,86.41547 7.6479215,80.545799 C 5.8002875,74.615345 -0.62265554,18.562478 2.4766925,14.658257 C 4.0781585,11.584505 7.5654725,9.3281002 13.770027,8.5458802 C 18.846828,7.7679442 65.026005,1.6882462 68.431167,2.6318872 C 71.836428,3.5755912 74.518839,4.3735702 74.763798,9.1062382 C 74.511948,11.680079 83.089176,64.178681 84.405042,67.27448 C 85.032906,70.900631 84.002238,75.96797 78.751404,77.637203 C 73.500669,79.306409 21.896682,87.946754 17.751663,88.655222 z "
     id="path609"
     sodipodi:nodetypes="ccccccccc" />
  <path
     style="fill:#ffffff;fill-opacity:1;fill-rule:evenodd;stroke:none;stroke-width:1pt;stroke-linecap:butt;stroke-linejoin:miter;stroke-opacity:1"
     d="M 21.886728,82.438028 C 18.416619,82.896479 13.596456,83.854883 13.020708,79.107053 C 10.623213,67.86773 5.1261935,23.323676 9.0430775,16.084802 C 9.9179105,14.382596 14.667717,12.072086 25.457244,11.107541 C 37.718421,9.8734282 62.876487,7.9967092 65.523936,8.1186172 C 68.171256,8.2405582 68.981151,7.9405882 69.55698,12.688538 C 69.32313,17.736368 77.309613,57.223931 77.781426,64.215311 C 78.148536,69.178394 78.780324,71.2871 75.541011,72.486935"
     id="path608"
     sodipodi:nodetypes="cccccccs" />
  <path
     style="fill:url(#linearGradient1138);fill-opacity:1;fill-rule:evenodd;stroke:none;stroke-width:1pt;stroke-linecap:butt;stroke-linejoin:miter;stroke-opacity:1"
     d="M 9.9112265,22.806368 C 9.9112265,22.806368 10.223316,16.070498 19.206801,14.729123 C 28.190253,13.38779 63.768657,8.8158712 64.616388,11.149976 C 65.464062,13.484066 66.51357,28.65278 66.775329,29.879894 C 67.037088,31.106957 36.919401,41.600459 28.649232,51.614915 C 20.379042,61.629356 14.58705,69.732887 14.58705,69.732887 C 14.58705,69.732887 9.8513015,34.413908 9.9112265,22.806368 z "
     id="path636" />
  <path
     style="font-size:12px;fill:#ffffff;fill-opacity:0.70434804;fill-rule:evenodd;stroke-width:1pt"
     d="M 14.221809,73.348298 L 14.221809,80.039195 L 25.832454,81.810341 L 25.832454,75.119444 L 14.221809,73.348298 z "
     id="path573"
     sodipodi:nodetypes="ccccc" />
  <g
     id="g4655"
     transform="matrix(2.7167244,0,0,2.7167244,8.6083914,8.643941)">
    <path
       sodipodi:nodetypes="csscssscssscssscs"
       id="path584"
       d="m 14.230456,18.757556 c -0.676682,-0.01306 -0.946923,1.93754 -0.946923,2.614346 0,0.676807 0.270148,2.567937 0.946923,2.561264 l 4.726329,-0.0466 0.0131,4.861961 c 0.0018,0.676806 1.831371,0.890745 2.508181,0.890745 0.676806,0 2.405006,-0.213944 2.402008,-0.890745 l -0.02183,-4.934631 4.685333,0.06619 c 0.67674,0.0096 1.238285,-1.831375 1.238285,-2.508182 0,-0.676806 -0.455329,-2.396734 -1.132119,-2.402015 l -5.039452,-0.0393 -0.101801,-4.842718 c -0.01422,-0.676658 -1.353616,-0.983344 -2.030422,-0.983344 -0.67681,0 -2.398841,0.412709 -2.402013,1.089511 l -0.02183,4.656582 z"
       style="font-size:12px;fill:#0d3d07;fill-rule:evenodd;stroke:#0d3d07;stroke-width:0.26985" />
    <path
       sodipodi:nodetypes="csscssscssscssscs"
       id="path589"
       d="m 14.700826,19.599684 c -0.449181,7.99e-4 -0.761731,1.323035 -0.761731,1.772218 0,0.449183 0.206382,1.665673 0.655563,1.66605 l 5.152486,0.0043 0.0087,5.504413 c 7.11e-4,0.449183 1.163783,0.619144 1.612965,0.619144 0.44918,0 1.720315,-0.116878 1.719133,-0.566061 l -0.01449,-5.517412 5.215186,-0.04439 c 0.449166,-0.0038 0.764822,-1.216867 0.764822,-1.66605 0,-0.449183 -0.368773,-1.65942 -0.817909,-1.666049 l -5.362844,-0.07917 0.05599,-5.227694 c 0.0048,-0.449157 -1.110705,-0.602478 -1.559885,-0.602478 -0.449182,0 -1.597788,0.206638 -1.612965,0.655562 l -0.173742,5.138913 z"
       style="font-size:12px;fill:#2aaf18;fill-opacity:1;fill-rule:evenodd;stroke:none;stroke-width:0.83871pt" />
    <path
       sodipodi:nodetypes="cssscsssss"
       id="path592"
       d="m 21.781987,22.556248 0.04086,5.775348 c 0.0016,0.22918 0.05775,0.400623 0.286928,0.400623 0.229183,0 0.689288,-0.171443 0.68755,-0.400623 l -0.04381,-5.781983 5.727703,0.04086 c 0.229178,0.0016 0.437044,-0.458367 0.437044,-0.687548 0,-0.229186 -0.207866,-0.284938 -0.437044,-0.286931 l -5.721787,-0.04973 c -0.652562,-0.0057 -0.982055,0.337412 -0.977439,0.989985 z"
       style="font-size:12px;fill:#208c11;fill-opacity:1;fill-rule:evenodd;stroke:none;stroke-width:0.83871pt" />
    <path
       sodipodi:nodetypes="cssscsssss"
       id="path594"
       d="m 21.142896,20.056349 -0.0044,-5.520408 c -1.83e-4,-0.229183 -0.09416,-0.400622 -0.323348,-0.400622 -0.229186,0 -0.687857,0.171439 -0.687551,0.400622 l 0.0074,5.52704 -5.399921,-0.04086 c -0.229177,-0.0017 -0.437041,0.458369 -0.437041,0.687553 0,0.229183 0.207868,0.284819 0.437041,0.286931 l 5.394005,0.04973 c 0.652561,0.006 1.014383,-0.337399 1.013858,-0.989985 z"
       style="font-size:12px;fill:#ebf8e9;fill-opacity:1;fill-rule:evenodd;stroke:none;stroke-width:0.83871pt" />
  </g>
</svg>
