<?xml version="1.0" encoding="UTF-8" standalone="no"?>
<!-- Created with Sodipodi ("http://www.sodipodi.com/") -->

<svg
   id="svg548"
   sodipodi:version="0.32"
   width="72pt"
   height="72pt"
   sodipodi:docname="miaz-import.svg"
   inkscape:version="1.2.2 (b0a8486541, 2022-12-01)"
   inkscape:output_extension="org.inkscape.output.svg.inkscape"
   version="1.1"
   xmlns:inkscape="http://www.inkscape.org/namespaces/inkscape"
   xmlns:sodipodi="http://sodipodi.sourceforge.net/DTD/sodipodi-0.dtd"
   xmlns:xlink="http://www.w3.org/1999/xlink"
   xmlns="http://www.w3.org/2000/svg"
   xmlns:svg="http://www.w3.org/2000/svg"
   xmlns:rdf="http://www.w3.org/1999/02/22-rdf-syntax-ns#"
   xmlns:cc="http://creativecommons.org/ns#"
   xmlns:dc="http://purl.org/dc/elements/1.1/">
  <metadata
     id="metadata27">
    <rdf:RDF>
      <cc:Work
         rdf:about="">
        <dc:format>image/svg+xml</dc:format>
        <dc:type
           rdf:resource="http://purl.org/dc/dcmitype/StillImage" />
      </cc:Work>
      <cc:Work
         rdf:about="">
        <dc:format>image/svg+xml</dc:format>
        <dc:type
           rdf:resource="http://purl.org/dc/dcmitype/StillImage" />
      </cc:Work>
    </rdf:RDF>
  </metadata>
  <defs
     id="defs550">
    <linearGradient
       id="linearGradient612">
      <stop
         style="stop-color:#7fa8e3;stop-opacity:0.741176;"
         offset="0.000000"
         id="stop613" />
      <stop
         style="stop-color:#ffffff;stop-opacity:0;"
         offset="1.000000"
         id="stop614" />
    </linearGradient>
    <linearGradient
       inkscape:collect="always"
       xlink:href="#linearGradient612"
       id="linearGradient2449"
       gradientUnits="userSpaceOnUse"
       gradientTransform="matrix(0.4888523,0,0,0.4888523,0.5931344,42.011121)"
       spreadMethod="pad"
       x1="50.6438866"
       y1="5.36792946"
       x2="35.7520943"
       y2="68.0443573" />
    <inkscape:perspective
       sodipodi:type="inkscape:persp3d"
       inkscape:vp_x="-56.888889 : 682.66667 : 1"
       inkscape:vp_y="0 : 1137.7778 : 0"
       inkscape:vp_z="796.44445 : 682.66667 : 1"
       inkscape:persp3d-origin="341.33333 : 455.11111 : 1"
       id="perspective29" />
    <linearGradient
       id="linearGradient569">
      <stop
         style="stop-color:#c57700;stop-opacity:1;"
         offset="0.000000"
         id="stop570" />
      <stop
         style="stop-color:#ffa75f;stop-opacity:0;"
         offset="1.000000"
         id="stop571" />
    </linearGradient>
    <linearGradient
       id="linearGradient559">
      <stop
         style="stop-color:#945700;stop-opacity:1;"
         offset="0.000000"
         id="stop560" />
      <stop
         style="stop-color:#ffa75f;stop-opacity:0;"
         offset="1.000000"
         id="stop561" />
    </linearGradient>
    <linearGradient
       xlink:href="#linearGradient559"
       id="linearGradient562"
       x1="40.9153252"
       y1="31.7318363"
       x2="42.7533417"
       y2="35.4855690"
       gradientUnits="userSpaceOnUse"
       spreadMethod="pad"
       gradientTransform="matrix(1.2287685,0,0,0.7275398,1.2783439,1.8739714)" />
    <linearGradient
       xlink:href="#linearGradient559"
       id="linearGradient566"
       x1="59.0300407"
       y1="48.8431816"
       x2="58.3435440"
       y2="23.6183739"
       gradientUnits="userSpaceOnUse"
       spreadMethod="pad"
       gradientTransform="matrix(0.5734264,0,0,1.5590094,1.5631579,2.1587764)" />
    <linearGradient
       xlink:href="#linearGradient569"
       id="linearGradient568"
       x1="92.7804184"
       y1="64.9443817"
       x2="90.8925323"
       y2="42.8786545"
       gradientUnits="userSpaceOnUse"
       spreadMethod="pad"
       gradientTransform="matrix(0.7296653,0,0,1.2251888,1.2783439,1.8739714)" />
    <linearGradient
       inkscape:collect="always"
       xlink:href="#linearGradient3340"
       id="linearGradient3387"
       gradientUnits="userSpaceOnUse"
       gradientTransform="matrix(1.0509199,-0.1486035,0.1724016,1.4993733,-23.490632,-0.8037803)"
       spreadMethod="pad"
       x1="85.637657"
       y1="17.443844"
       x2="73.916298"
       y2="54.628181" />
    <linearGradient
       spreadMethod="pad"
       gradientUnits="objectBoundingBox"
       id="linearGradient3340"
       y2="0"
       x2="1"
       y1="0"
       x1="0">
      <stop
         id="stop3342"
         offset="0.000000"
         style="stop-color:#ffb700;stop-opacity:1" />
      <stop
         id="stop3344"
         offset="1.000000"
         style="stop-color:#ffd58f;stop-opacity:0;" />
    </linearGradient>
    <linearGradient
       inkscape:collect="always"
       xlink:href="#linearGradient3340"
       id="linearGradient3296"
       gradientUnits="userSpaceOnUse"
       spreadMethod="pad"
       x1="60.644615"
       y1="19.295689"
       x2="35.370575"
       y2="69.142799"
       gradientTransform="matrix(1.418885,-0.200635,0.127692,1.110535,-36.590932,0.8722997)" />
  </defs>
  <sodipodi:namedview
     id="base"
     showgrid="false"
     inkscape:zoom="3.9205143"
     inkscape:cx="68.230844"
     inkscape:cy="40.555904"
     inkscape:window-width="1920"
     inkscape:window-height="979"
     inkscape:window-x="0"
     inkscape:window-y="0"
     inkscape:current-layer="svg548"
     pagecolor="#ffffff"
     bordercolor="#000000"
     borderopacity="0.25"
     inkscape:showpageshadow="2"
     inkscape:pageopacity="0.0"
     inkscape:pagecheckerboard="0"
     inkscape:deskcolor="#d1d1d1"
     inkscape:document-units="pt"
     inkscape:window-maximized="1" />
  <path
     d="M 27.751211,4.8008514 C 27.066079,4.7213325 17.014269,1.5578015 17.209326,7.1731638 17.404385,12.788537 20.712415,53.493353 24.8981,58.544552 c 1.950872,3.250987 6.540043,7.892334 14.053463,10.533157 6.103396,2.134724 41.725708,13.934046 44.406067,13.731321 2.68036,-0.202614 8.38257,0.401815 8.81264,-5.654639 0.4302,-6.056584 2.57792,-22.481639 2.35575,-28.929802 C 93.64598,42.529788 96.31198,38.273274 89.25537,34.07236 84.58193,32.617092 36.850092,11.695735 34.271656,10.825994 31.693348,9.9561225 29.591592,9.6479415 27.751211,4.8008514 Z"
     style="font-size:12px;fill:#000009;fill-opacity:0.301471;fill-rule:evenodd;stroke-width:1.26544pt"
     id="folder_svg_path783"
     sodipodi:nodetypes="cccccccccc" />
  <path
     d="M 16.464282,3.7742976 C 15.779157,3.6948346 5.727345,0.5312921 5.922404,6.1466656 6.117458,11.762006 14.000882,51.938235 18.186555,56.989323 c 1.950872,3.250987 6.540042,7.892334 14.053463,10.533157 6.103396,2.134724 45.477323,12.411072 48.157691,12.208458 2.680351,-0.202725 8.382561,0.401704 8.812631,-5.65475 C 89.64055,68.019715 88.65869,31.201371 88.29727,30.018138 87.41722,24.323226 81.657471,21.258254 79.059205,20.214805 74.385767,18.759537 30.065603,4.4961276 27.487167,3.6263869 24.908863,2.7565484 18.180192,1.0628694 16.464282,3.7742976 Z"
     style="font-size:12px;fill:#593a28;fill-rule:evenodd;stroke-width:1.26544pt"
     id="folder_svg_path554"
     sodipodi:nodetypes="cccccccccc" />
  <path
     style="font-size:12px;fill:#f1e36c;fill-opacity:1;fill-rule:evenodd;stroke-width:1pt"
     d="m 20.731538,5.2329507 c 0,0 -0.482126,0.759219 -0.9375,1.40625 9.960667,4.6415723 12.206214,6.0539693 15.09375,8.4687503 2.837427,2.372877 1.755722,8.480742 3.84375,11.125 2.922433,3.700939 22.167726,8.737504 23.90625,9.40625 2.998344,1.153351 6.06397,4.083772 7.5625,7.21875 6.699762,14.016132 8.355132,23.709807 9.375,29.625 -6.962631,-11.166388 -7.098447,-29.620048 -21,-34.6875 -7.172079,-1.631037 -19.453553,-6.757227 -21.21875,-7.375 -6.171601,-2.159899 -1.00817,-11.4319 -9.75,-15.875 -3.39124,-1.723622 -9.199659,-4.6193643 -13.375,-6.6875003 -2.378725,-0.120582 -4.268712,0.852876 -3.5625,3.0937503 0.680671,3.959682 6.476329,42.40988 15.4375,47.84375 8.978821,7.54748 53.831563,16.948637 55,17.3125 1.168282,0.36377 3.597942,-0.147795 3.562502,-4.375 -0.0354,-4.227204 0.22826,-36.2165 -0.65625,-38.03125 -0.33932,-2.949785 -1.85506,-6.259991 -6.125002,-8.125 C 73.617846,23.711691 22.061743,5.0448557 20.731538,5.2329507 Z"
     id="folder_svg_path552" />
  <path
     style="font-size:12px;fill:url(#linearGradient3387);fill-opacity:1;fill-rule:evenodd;stroke-width:1pt"
     d="m 35.856538,16.295451 c 1.633307,2.815114 1.074076,7.656827 2.875,9.9375 2.922433,3.700939 22.167726,8.737504 23.90625,9.40625 2.998344,1.153351 6.06397,4.083772 7.5625,7.21875 3.813383,7.977729 5.954575,14.50389 7.3125,19.78125 2.019261,4.751579 3.441121,8.334517 3.40625,8.03125 -0.09975,-0.86755 -0.262208,-37.519629 -2.375,-40.21875 -1.818818,-2.32348 -33.485882,-11.51628 -42.6875,-14.15625 z"
     id="folder_svg_path562" />
  <path
     style="font-size:12px;fill:url(#linearGradient3296);fill-opacity:1;fill-rule:evenodd;stroke-width:1.26544pt"
     d="m 11.243001,12.571271 c 2.651641,0.40784 12.857264,5.094674 16.194547,8.435716 1.705479,3.749087 0.792505,11.539963 7.57102,15.07043 6.778503,3.530355 22.473764,4.592711 25.11995,8.208665 2.646199,3.616066 13.762539,25.261441 14.643627,27.381282 0.880959,2.119971 -48.960692,-10.34221 -51.177387,-15.7646 C 20.562195,50.480285 15.914369,39.343162 11.243001,12.571271 Z"
     id="folder_svg_path635"
     sodipodi:nodetypes="ccccccc" />
  <path
     style="font-size:12px;fill:#ffffff;fill-opacity:0.70434804;fill-rule:evenodd;stroke-width:1pt"
     d="M 31.429375,70.804052 L 31.429375,77.880852 L 43.709675,79.754152 L 43.709675,72.677352 L 31.429375,70.804052 z "
     id="path573"
     sodipodi:nodetypes="ccccc" />
  <use
     x="0"
     y="0"
     xlink:href="#g2408"
     id="use2417"
     transform="translate(-16.949856,-7.5281312)"
     width="90"
     height="90" />
  <use
     x="0"
     y="0"
     xlink:href="#g2408"
     id="use2415"
     transform="translate(-8.4749279,-3.7640669)"
     width="90"
     height="90" />
  <g
     id="g2408"
     transform="matrix(0.9916167,-3.4814919e-2,3.4814919e-2,0.9916167,14.416336,-1.2217904)">
    <path
       sodipodi:nodetypes="ccccccccc"
       id="path609"
       d="M 10.460539,85.589046 C 8.6907565,85.563113 5.7237385,84.481583 5.464676,81.579286 C 4.5511014,78.646933 1.375233,50.931212 2.9077263,49.000743 C 3.699583,47.480906 5.4239074,46.36521 8.4917925,45.978437 C 11.002052,45.593781 33.83566,42.587634 35.519367,43.054223 C 37.203121,43.520843 38.529456,43.91541 38.650579,46.25551 C 38.526048,47.528164 42.76712,73.486453 43.417758,75.017193 C 43.728208,76.810169 43.218589,79.315748 40.622279,80.14111 C 38.026016,80.966461 12.510073,85.238739 10.460539,85.589046 z "
       style="fill:#3d4e67;fill-opacity:1;fill-rule:evenodd;stroke:none;stroke-width:1pt;stroke-linecap:butt;stroke-linejoin:miter;stroke-opacity:1" />
    <path
       sodipodi:nodetypes="cccccccs"
       id="path608"
       d="M 12.50515,82.514912 C 10.789331,82.741596 8.4059703,83.215486 8.1212863,80.867889 C 6.9358294,75.310531 4.2177905,53.28542 6.1545203,49.706109 C 6.5870872,48.864442 8.9356614,47.721993 14.270615,47.245069 C 20.333239,46.634852 32.772816,45.706895 34.081866,45.767174 C 35.390853,45.827469 35.79131,45.679146 36.076034,48.026803 C 35.960405,50.522736 39.909374,70.04763 40.142664,73.504567 C 40.324186,75.958596 40.636577,77.00126 39.034876,77.594527"
       style="fill:#ffffff;fill-opacity:1;fill-rule:evenodd;stroke:none;stroke-width:1pt;stroke-linecap:butt;stroke-linejoin:miter;stroke-opacity:1" />
    <path
       id="path636"
       d="M 6.5837811,53.029631 C 6.5837811,53.029631 6.7380977,49.699035 11.180043,49.035784 C 15.621972,48.372553 33.213957,46.111935 33.633126,47.26605 C 34.052262,48.420157 34.571198,55.920432 34.700626,56.527186 C 34.830056,57.133916 19.938158,62.322497 15.848918,67.274213 C 11.759665,72.225923 8.8957755,76.232768 8.8957755,76.232768 C 8.8957755,76.232768 6.5541526,58.76906 6.5837811,53.029631 z "
       style="fill:url(#linearGradient2449);fill-opacity:1;fill-rule:evenodd;stroke:none;stroke-width:1pt;stroke-linecap:butt;stroke-linejoin:miter;stroke-opacity:1" />
  </g>
  <g
     id="g4655"
     transform="matrix(2.6726989,0,0,2.6726989,9.4520418,9.6284937)">
    <path
       sodipodi:nodetypes="csscssscssscssscs"
       id="path584"
       d="M 14.230456,18.757556 C 13.553774,18.744497 13.283533,20.695096 13.283533,21.371902 C 13.283533,22.048709 13.553681,23.939839 14.230456,23.933166 L 18.956785,23.886567 L 18.969885,28.748528 C 18.971708,29.425334 20.801256,29.639273 21.478066,29.639273 C 22.154872,29.639273 23.883072,29.425329 23.880074,28.748528 L 23.858242,23.813897 L 28.543575,23.880084 C 29.220315,23.889639 29.78186,22.048709 29.78186,21.371902 C 29.78186,20.695096 29.326531,18.975168 28.649741,18.969887 L 23.610289,18.93059 L 23.508488,14.087872 C 23.494264,13.411214 22.154872,13.104528 21.478066,13.104528 C 20.801256,13.104528 19.079225,13.517237 19.076053,14.194039 L 19.054221,18.850621 L 14.230456,18.757556 z "
       style="font-size:12px;fill:#0d3d07;fill-rule:evenodd;stroke:#0d3d07;stroke-width:0.26984996" />
    <path
       sodipodi:nodetypes="csscssscssscssscs"
       id="path589"
       d="M 14.700826,19.599684 C 14.251645,19.600483 13.939095,20.922719 13.939095,21.371902 C 13.939095,21.821085 14.145477,23.037575 14.594658,23.037952 L 19.747144,23.042256 L 19.755839,28.546669 C 19.75655,28.995852 20.919622,29.165813 21.368804,29.165813 C 21.817984,29.165813 23.089119,29.048935 23.087937,28.599752 L 23.073448,23.08234 L 28.288634,23.037952 C 28.7378,23.034127 29.053456,21.821085 29.053456,21.371902 C 29.053456,20.922719 28.684683,19.712482 28.235547,19.705853 L 22.872703,19.626683 L 22.928689,14.398989 C 22.933496,13.949832 21.817984,13.796511 21.368804,13.796511 C 20.919622,13.796511 19.771016,14.003149 19.755839,14.452073 L 19.582097,19.590986 L 14.700826,19.599684 z "
       style="font-size:12px;fill:#2aaf18;fill-opacity:1;fill-rule:evenodd;stroke:none;stroke-width:0.83871002pt" />
    <path
       sodipodi:nodetypes="cssscsssss"
       id="path592"
       d="M 21.781987,22.556248 L 21.822845,28.331596 C 21.824465,28.560776 21.88059,28.732219 22.109773,28.732219 C 22.338956,28.732219 22.799061,28.560776 22.797323,28.331596 L 22.75351,22.549613 L 28.481213,22.590471 C 28.710391,22.592107 28.918257,22.132104 28.918257,21.902923 C 28.918257,21.673737 28.710391,21.617985 28.481213,21.615992 L 22.759426,21.566263 C 22.106864,21.560591 21.777371,21.903675 21.781987,22.556248 z "
       style="font-size:12px;fill:#208c11;fill-opacity:1;fill-rule:evenodd;stroke:none;stroke-width:0.83871002pt" />
    <path
       sodipodi:nodetypes="cssscsssss"
       id="path3559"
       d="M 21.142896,20.056349 L 21.138459,14.535941 C 21.138276,14.306758 21.044295,14.135319 20.815111,14.135319 C 20.585925,14.135319 20.127254,14.306758 20.12756,14.535941 L 20.134954,20.062981 L 14.735033,20.022124 C 14.505856,20.02039 14.297992,20.480493 14.297992,20.709677 C 14.297992,20.93886 14.50586,20.994496 14.735033,20.996608 L 20.129038,21.046334 C 20.781599,21.05235 21.143421,20.708935 21.142896,20.056349 z "
       style="font-size:12px;fill:#ebf8e9;fill-opacity:1;fill-rule:evenodd;stroke:none;stroke-width:0.83871002pt" />
  </g>
</svg>
