<?xml version="1.0" encoding="UTF-8" standalone="no"?>
<!--

    MiAZ icon is based on:
    COLLECTION: Business Duotone Icons
    LICENSE: CC Attribution License
    AUTHOR: cataicon
    Uploaded to: SVG Repo, www.svgrepo.com, Generator: SVG Repo Mixer Tools
    Repo: https://www.svgrepo.com/svg/391994/binder-business-finance-management-marketing-office
    Binder Business Finance Management Marketing Office SVG Vector
    Free Download Binder Business Finance Management Marketing Office SVG vector file in monocolor
    and multicolor type for Sketch and Figma from Binder Business Finance Management Marketing Office
    Vectors svg vector collection. Binder Business Finance Management Marketing Office Vectors SVG
    vector illustration graphic art design format.
-->

<svg
   width="800px"
   height="800px"
   viewBox="0 0 32 32"
   version="1.1"
   id="svg21"
   sodipodi:docname="miaz.svg"
   inkscape:version="1.2.2 (b0a8486541, 2022-12-01)"
   xmlns:inkscape="http://www.inkscape.org/namespaces/inkscape"
   xmlns:sodipodi="http://sodipodi.sourceforge.net/DTD/sodipodi-0.dtd"
   xmlns="http://www.w3.org/2000/svg"
   xmlns:svg="http://www.w3.org/2000/svg">
  <sodipodi:namedview
     id="namedview23"
     pagecolor="#ffffff"
     bordercolor="#000000"
     borderopacity="0.25"
     inkscape:showpageshadow="2"
     inkscape:pageopacity="0.0"
     inkscape:pagecheckerboard="0"
     inkscape:deskcolor="#d1d1d1"
     showgrid="false"
     inkscape:zoom="0.77875"
     inkscape:cx="400"
     inkscape:cy="400.64205"
     inkscape:window-width="1600"
     inkscape:window-height="795"
     inkscape:window-x="0"
     inkscape:window-y="32"
     inkscape:window-maximized="1"
     inkscape:current-layer="binder" />
  <defs
     id="defs4">
    <style
       id="style2">.cls-1{fill:#dbe9fa;}.cls-2{fill:#52acf9;}.cls-3{fill:#d9dce1;}.cls-4{fill:#ffffff;}</style>
  </defs>
  <g
     id="binder"
     inkscape:label="binder"
     style="display:inline">
    <rect
       class="cls-2"
       height="28"
       width="28"
       x="2"
       y="2"
       id="rect8" />
    <rect
       class="cls-3"
       height="9"
       width="28"
       x="2"
       y="21"
       id="rect10" />
    <rect
       class="cls-4"
       height="2"
       width="4.6163726"
       x="13.84"
       y="6"
       id="rect12"
       style="stroke-width:1.07429" />
    <rect
       class="cls-4"
       height="2"
       width="4.8731942"
       x="5"
       y="6"
       id="rect14"
       style="stroke-width:1.10377" />
    <rect
       class="cls-4"
       height="2"
       width="4.3595505"
       x="22.64045"
       y="6"
       id="rect16"
       style="stroke-width:1.04398" />
    <path
       d="M 21.67,2 H 2 V 30 H 30 V 2 Z M 19.33,4 V 21 H 13 V 4 Z M 4,4 h 6.67 V 21 H 4 Z m 0,24 v -5 h 6.67 v 5 z m 9,0 v -5 h 6.33 v 5 z m 15,0 H 21.67 V 23 H 28 Z M 21.67,21 V 4 H 28 v 17 z"
       id="path18" />
    <path
       style="fill:#ff2a2a;stroke-width:0.0523912"
       d="M 4.0064204,12.558588 V 4.0064204 h 3.4157303 3.4157303 v 8.5521676 8.552166 H 7.4221507 4.0064204 Z M 9.1962124,7.0126366 V 5.9760105 H 7.1044086 5.0126048 v 1.0366261 1.0366266 h 2.0918038 2.0918038 z"
       id="path444" />
    <path
       style="display:inline;fill:#ffcc00;stroke-width:0.052515"
       d="M 12.841091,12.58427 V 4.0064204 h 3.235955 3.235956 V 12.58427 21.162118 H 16.077046 12.841091 Z M 17.98679,7.0216643 V 5.9819251 h -2.095413 -2.095413 v 1.0397392 1.0397396 h 2.095413 2.095413 z"
       id="path705" />
  </g>
</svg>
