<?xml version="1.0" encoding="UTF-8" standalone="no"?>
<svg
   viewBox="0 0 22 22"
   version="1.1"
   id="svg6"
   sodipodi:docname="miaz-import-config.svg"
   inkscape:version="1.2.2 (b0a8486541, 2022-12-01)"
   xmlns:inkscape="http://www.inkscape.org/namespaces/inkscape"
   xmlns:sodipodi="http://sodipodi.sourceforge.net/DTD/sodipodi-0.dtd"
   xmlns="http://www.w3.org/2000/svg"
   xmlns:svg="http://www.w3.org/2000/svg">
  <sodipodi:namedview
     id="namedview8"
     pagecolor="#ffffff"
     bordercolor="#000000"
     borderopacity="0.25"
     inkscape:showpageshadow="2"
     inkscape:pageopacity="0.0"
     inkscape:pagecheckerboard="0"
     inkscape:deskcolor="#d1d1d1"
     showgrid="false"
     inkscape:zoom="35.545455"
     inkscape:cx="11.014066"
     inkscape:cy="11"
     inkscape:window-width="1920"
     inkscape:window-height="1011"
     inkscape:window-x="0"
     inkscape:window-y="0"
     inkscape:window-maximized="1"
     inkscape:current-layer="svg6" />
  <defs
     id="defs3051">
    <style
       type="text/css"
       id="current-color-scheme">
      .ColorScheme-Text {
        color:#232629;
      }
      </style>
  </defs>
  <path
     style="fill:currentColor;fill-opacity:1;stroke:none;stroke-width:1.34212"
     d="m 11.027638,0.29066097 c -0.906214,0.005368 -1.80812,0.12481065 -2.6842439,0.3565012 V 2.033847 2.049575 A 9.3948553,9.3948553 0 0 0 6.5766161,2.7809268 L 6.5661306,2.7704413 5.5831312,1.7874418 C 4.0169416,2.710889 2.710889,4.0169416 1.7874418,5.5831312 l 0.6998958,0.6998956 0.2935892,0.2935893 a 9.3948553,9.3948553 0 0 0 -0.733973,1.766778 H 2.0286044 0.63929814 C 0.41030525,9.2198536 0.29317073,10.121773 0.29066097,11.027638 c 0.005368,0.906214 0.12482407,1.808121 0.3565012,2.684245 H 2.033847 2.0495748 a 9.3948553,9.3948553 0 0 0 0.7313517,1.766778 l -0.2935891,0.293588 -0.6998959,0.699897 c 0.9234473,1.566203 2.2294864,2.872242 3.7956894,3.795689 L 6.2830266,19.567939 6.5766159,19.27435 a 9.3948553,9.3948553 0 0 0 1.766778,0.733973 v 0.41417 0.993485 c 0.8764597,0.228994 1.7783661,0.346128 2.6842441,0.348638 0.449611,-0.0026 0.897249,-0.03572 1.342122,-0.09437 V 20.32026 c -0.443503,0.06549 -0.892631,0.100624 -1.342122,0.102231 -0.450214,-6.7e-4 -0.897799,-0.03479 -1.3421217,-0.09962 v -0.0053 -1.237269 -0.120582 A 8.0527331,8.0527331 0 0 1 6.3669095,17.586213 l -0.083882,0.08388 -0.8729037,0.872903 -0.00525,0.0053 C 4.6851004,18.008628 4.0474053,17.368951 3.5096571,16.647775 l 0.00262,-0.0026 0.8729036,-0.872905 0.086504,-0.08651 A 8.0527331,8.0527331 0 0 1 3.090244,12.36976 H 2.9749053 1.7402578 1.7350151 c -0.065495,-0.443503 -0.1006212,-0.892631 -0.1022316,-1.342122 6.71e-4,-0.450214 0.034787,-0.897799 0.099611,-1.3421217 h 0.00525 1.2372689 0.1205813 A 8.0527331,8.0527331 0 0 1 4.4690648,6.3669095 L 4.3851821,6.2830268 3.5122785,5.4101231 3.5070358,5.4048805 C 4.0466629,4.6851004 4.6863259,4.0474053 5.4075019,3.5096571 l 0.00262,0.00262 0.8729037,0.8729036 0.086504,0.086504 A 8.0527331,8.0527331 0 0 1 9.6855163,3.090244 V 2.9749053 1.7402578 1.7350151 c 0.4434907,-0.065495 0.8926317,-0.1006212 1.3421217,-0.1022316 0.450215,6.71e-4 0.8978,0.034787 1.342122,0.099611 v 0.00525 1.2372689 0.1205813 a 8.0527331,8.0527331 0 0 1 3.318607,1.3735782 l 0.08388,-0.083882 0.872905,-0.8729036 0.0053,-0.00525 c 0.719793,0.5396137 1.357462,1.1792901 1.895223,1.900466 l -0.0026,0.00262 -0.872903,0.8729037 -0.08651,0.086504 a 8.0527331,8.0527331 0 0 1 1.38144,3.3159855 h 0.115341 1.234646 0.0053 c 0.06549,0.4435035 0.100625,0.8926315 0.102232,1.3421215 -6.58e-4,0.450214 -0.03479,0.8978 -0.09962,1.342122 h -0.0053 -1.237268 -0.120582 a 8.0527331,8.0527331 0 0 1 -0.364364,1.342123 h 1.412897 1.407655 c 0.228986,-0.876457 0.34612,-1.778363 0.34863,-2.684242 -0.0054,-0.9062 -0.12481,-1.8081197 -0.356501,-2.6842436 H 20.422493 20.005701 A 9.3948553,9.3948553 0 0 0 19.27435,6.5766161 l 0.01045,-0.01049 0.982999,-0.9829995 C 19.344416,4.0169282 18.038349,2.710889 16.472146,1.7874418 l -0.977757,0.977757 -0.01572,0.015728 A 9.3948553,9.3948553 0 0 0 13.711883,2.0469538 V 2.0286044 0.63929814 C 12.835423,0.41030525 11.933517,0.29317073 11.027638,0.29066097 Z M 8.3433941,7.0012719 v 8.0527341 l 6.7106119,-4.026368 z m 6.7106119,8.0527341 v 1.342121 h 6.71061 v -1.342121 z m 0,2.684243 v 1.342123 h 6.71061 v -1.342123 z m 0,2.684244 v 1.342123 h 6.71061 v -1.342123 z"
     class="ColorScheme-Text"
     id="path4" />
</svg>
