<?xml version="1.0" encoding="UTF-8" standalone="no"?>
<svg
   viewBox="0 0 22 22"
   version="1.1"
   id="svg1803"
   sodipodi:docname="folder-library.svg"
   inkscape:version="1.2.1 (9c6d41e410, 2022-07-14)"
   xmlns:inkscape="http://www.inkscape.org/namespaces/inkscape"
   xmlns:sodipodi="http://sodipodi.sourceforge.net/DTD/sodipodi-0.dtd"
   xmlns="http://www.w3.org/2000/svg"
   xmlns:svg="http://www.w3.org/2000/svg">
  <sodipodi:namedview
     id="namedview1805"
     pagecolor="#ffffff"
     bordercolor="#000000"
     borderopacity="0.25"
     inkscape:showpageshadow="2"
     inkscape:pageopacity="0.0"
     inkscape:pagecheckerboard="0"
     inkscape:deskcolor="#d1d1d1"
     showgrid="false"
     inkscape:zoom="35.545455"
     inkscape:cx="11.042199"
     inkscape:cy="11"
     inkscape:window-width="1920"
     inkscape:window-height="1011"
     inkscape:window-x="0"
     inkscape:window-y="0"
     inkscape:window-maximized="1"
     inkscape:current-layer="svg1803" />
  <defs
     id="defs3051">
    <style
       type="text/css"
       id="current-color-scheme">
      .ColorScheme-Text {
        color:#232629;
      }
      </style>
  </defs>
  <path
     style="fill:currentColor;fill-opacity:1;stroke:none"
     d="M 11 3 L 3 7.6230469 L 3 7.9980469 L 3 9 L 4 9 L 4 10 L 4 18 L 3 18 L 3 19 L 19 19 L 19 18 L 18 18 L 18 10 L 18 9 L 19 9 L 19 7.9980469 L 19 7.6230469 L 11 3 z M 11 4.15625 L 17.650391 7.9980469 L 4.3496094 7.9980469 L 11 4.15625 z M 5 9 L 7 9 L 7 10 L 7 18 L 5 18 L 5 10 L 5 9 z M 8 9 L 14 9 L 14 10 L 14 18 L 13 18 L 13 14 L 9 14 L 9 18 L 8 18 L 8 10 L 8 9 z M 15 9 L 17 9 L 17 10 L 17 18 L 15 18 L 15 10 L 15 9 z "
     class="ColorScheme-Text"
     id="path1801" />
</svg>
