<?xml version="1.0" encoding="UTF-8" standalone="no"?>
<svg
   height="16px"
   viewBox="0 0 16 16"
   width="16px"
   version="1.1"
   id="svg3826"
   sodipodi:docname="io.github.t00m.MiAZ-sidebar-show-down-symbolic.svg"
   inkscape:version="1.2.2 (b0a8486541, 2022-12-01)"
   xmlns:inkscape="http://www.inkscape.org/namespaces/inkscape"
   xmlns:sodipodi="http://sodipodi.sourceforge.net/DTD/sodipodi-0.dtd"
   xmlns="http://www.w3.org/2000/svg"
   xmlns:svg="http://www.w3.org/2000/svg">
  <defs
     id="defs3830" />
  <sodipodi:namedview
     id="namedview3828"
     pagecolor="#ffffff"
     bordercolor="#000000"
     borderopacity="0.25"
     inkscape:showpageshadow="2"
     inkscape:pageopacity="0.0"
     inkscape:pagecheckerboard="0"
     inkscape:deskcolor="#d1d1d1"
     showgrid="false"
     inkscape:zoom="48.875"
     inkscape:cx="8.0102302"
     inkscape:cy="8"
     inkscape:window-width="1920"
     inkscape:window-height="979"
     inkscape:window-x="0"
     inkscape:window-y="0"
     inkscape:window-maximized="1"
     inkscape:current-layer="svg3826" />
  <g
     fill="#2e3436"
     id="g3824"
     transform="matrix(0,1,1,0,0,0)">
    <path
       d="M 9.5,14 V 2 h 5 v 12 z m 0,0"
       fill-opacity="0.34902"
       id="path3818" />
    <path
       d="m 13,1 c 1.644531,0 3,1.355469 3,3 v 8 c 0,1.644531 -1.355469,3 -3,3 H 3 C 1.355469,15 0,13.644531 0,12 V 4 C 0,2.355469 1.355469,1 3,1 Z m 0,2 H 3 C 2.429688,3 2,3.429688 2,4 v 8 c 0,0.570312 0.429688,1 1,1 h 10 c 0.570312,0 1,-0.429688 1,-1 V 4 C 14,3.429688 13.570312,3 13,3 Z m 0,0"
       id="path3820" />
    <path
       d="M 10,2 H 9 v 12 h 1 z m 0,0"
       id="path3822" />
  </g>
</svg>
