<?xml version="1.0" encoding="UTF-8" standalone="no"?>
<svg
   height="16px"
   viewBox="0 0 16 16"
   width="16px"
   version="1.1"
   id="svg8"
   sodipodi:docname="com.github.t00m.Loro-workbook-delete-symbolic.svg"
   inkscape:version="1.2.2 (b0a8486541, 2022-12-01)"
   xmlns:inkscape="http://www.inkscape.org/namespaces/inkscape"
   xmlns:sodipodi="http://sodipodi.sourceforge.net/DTD/sodipodi-0.dtd"
   xmlns="http://www.w3.org/2000/svg"
   xmlns:svg="http://www.w3.org/2000/svg">
  <defs
     id="defs12" />
  <sodipodi:namedview
     id="namedview10"
     pagecolor="#ffffff"
     bordercolor="#000000"
     borderopacity="0.25"
     inkscape:showpageshadow="2"
     inkscape:pageopacity="0.0"
     inkscape:pagecheckerboard="0"
     inkscape:deskcolor="#d1d1d1"
     showgrid="false"
     inkscape:zoom="48.875"
     inkscape:cx="8.0204604"
     inkscape:cy="8"
     inkscape:window-width="1549"
     inkscape:window-height="991"
     inkscape:window-x="26"
     inkscape:window-y="23"
     inkscape:window-maximized="0"
     inkscape:current-layer="svg8" />
  <g
     fill="#2e3436"
     id="g6">
    <path
       d="m 1 4 v 1 h 8 v -1 z m 0 0"
       id="path2" />
    <path
       d="m 3 1 c -1.644531 0 -3 1.355469 -3 3 v 8 c 0 1.644531 1.355469 3 3 3 h 10 c 1.644531 0 3 -1.355469 3 -3 v -6 c 0 -1.644531 -1.355469 -3 -3 -3 h -3.585938 l -1.707031 -1.707031 c -0.1875 -0.1875 -0.441406 -0.292969 -0.707031 -0.292969 z m 0 2 h 3.585938 l 1.707031 1.707031 c 0.1875 0.1875 0.441406 0.292969 0.707031 0.292969 h 4 c 0.5625 0 1 0.4375 1 1 v 6 c 0 0.566406 -0.4375 1 -1 1 h -10 c -0.5625 0 -1 -0.433594 -1 -1 v -8 c 0 -0.5625 0.4375 -1 1 -1 z m 0 0"
       id="path4" />
  </g>
  <path
     d="m 4.409367,7.9674958 h 7.140984 v 1.988282 H 4.409367 Z m 0,0"
     fill="#2e3436"
     id="path1834"
     style="stroke-width:0.944787" />
</svg>
