<?xml version="1.0" encoding="UTF-8" standalone="no"?>
<!-- Created with Inkscape (http://www.inkscape.org/) -->

<svg
   width="90"
   height="90"
   id="svg2"
   sodipodi:version="0.32"
   inkscape:version="1.1.2 (0a00cf5339, 2022-02-04)"
   version="1.0"
   sodipodi:docname="miaz-settings-plugins-users.svg"
   inkscape:output_extension="org.inkscape.output.svg.inkscape"
   xmlns:inkscape="http://www.inkscape.org/namespaces/inkscape"
   xmlns:sodipodi="http://sodipodi.sourceforge.net/DTD/sodipodi-0.dtd"
   xmlns:xlink="http://www.w3.org/1999/xlink"
   xmlns="http://www.w3.org/2000/svg"
   xmlns:svg="http://www.w3.org/2000/svg"
   xmlns:rdf="http://www.w3.org/1999/02/22-rdf-syntax-ns#"
   xmlns:cc="http://creativecommons.org/ns#"
   xmlns:dc="http://purl.org/dc/elements/1.1/">
  <defs
     id="defs4">
    <linearGradient
       inkscape:collect="always"
       id="linearGradient3651">
      <stop
         style="stop-color:#ed0000;stop-opacity:1;"
         offset="0"
         id="stop3653" />
      <stop
         style="stop-color:#b01911;stop-opacity:1"
         offset="1"
         id="stop3655" />
    </linearGradient>
    <linearGradient
       inkscape:collect="always"
       id="linearGradient3637">
      <stop
         style="stop-color:#7a889e;stop-opacity:1;"
         offset="0"
         id="stop3639" />
      <stop
         style="stop-color:#7a889e;stop-opacity:0;"
         offset="1"
         id="stop3641" />
    </linearGradient>
    <linearGradient
       inkscape:collect="always"
       id="linearGradient3617">
      <stop
         style="stop-color:#ffffff;stop-opacity:1;"
         offset="0"
         id="stop3619" />
      <stop
         style="stop-color:#c2c2c2;stop-opacity:1"
         offset="1"
         id="stop3621" />
    </linearGradient>
    <linearGradient
       inkscape:collect="always"
       id="linearGradient3604">
      <stop
         style="stop-color:#9b9a9a;stop-opacity:1"
         offset="0"
         id="stop3606" />
      <stop
         style="stop-color:#c2c2c2;stop-opacity:1"
         offset="1"
         id="stop3608" />
    </linearGradient>
    <linearGradient
       inkscape:collect="always"
       xlink:href="#linearGradient3617"
       id="linearGradient3623"
       x1="43.164982"
       y1="-3.4108975"
       x2="47.32143"
       y2="21.071428"
       gradientUnits="userSpaceOnUse"
       gradientTransform="matrix(0.91007805,0,0,0.88117818,3.8745747,2.3298874)" />
    <linearGradient
       inkscape:collect="always"
       xlink:href="#linearGradient3637"
       id="linearGradient3643"
       x1="53.214287"
       y1="4.1964288"
       x2="53.392857"
       y2="6.455399"
       gradientUnits="userSpaceOnUse"
       gradientTransform="matrix(0.94667833,0,0,0.94667833,3.7481915,3.7189939)" />
    <linearGradient
       inkscape:collect="always"
       xlink:href="#linearGradient3637"
       id="linearGradient3647"
       gradientUnits="userSpaceOnUse"
       x1="53.214287"
       y1="4.1964288"
       x2="53.392857"
       y2="6.455399"
       gradientTransform="matrix(-0.72738624,0.60589531,-0.60589531,-0.72738624,119.13354,27.828264)" />
    <linearGradient
       inkscape:collect="always"
       xlink:href="#linearGradient3651"
       id="linearGradient3664"
       gradientUnits="userSpaceOnUse"
       x1="39.107143"
       y1="41.964287"
       x2="25.892857"
       y2="60.17857"
       gradientTransform="matrix(0.94667833,0,0,0.94667833,0.87932291,11.608382)" />
    <linearGradient
       inkscape:collect="always"
       xlink:href="#linearGradient3604"
       id="linearGradient3730"
       gradientUnits="userSpaceOnUse"
       x1="62.779778"
       y1="43.707336"
       x2="74.512352"
       y2="53.707336"
       gradientTransform="matrix(0.94667833,0,0,0.94667833,3.7481915,3.7189939)" />
    <linearGradient
       inkscape:collect="always"
       xlink:href="#linearGradient3604"
       id="linearGradient3732"
       gradientUnits="userSpaceOnUse"
       gradientTransform="matrix(0.91007805,0,0,0.88117818,3.8745747,2.3298874)"
       x1="49.466862"
       y1="19.64887"
       x2="48.549885"
       y2="4.6013727" />
    <linearGradient
       inkscape:collect="always"
       xlink:href="#linearGradient3651"
       id="linearGradient3740"
       gradientUnits="userSpaceOnUse"
       x1="39.107143"
       y1="41.964287"
       x2="23.629303"
       y2="69.610046"
       gradientTransform="matrix(0.94667833,0,0,0.94667833,3.7481915,3.7189939)" />
    <radialGradient
       inkscape:collect="always"
       xlink:href="#linearGradient1843"
       id="radialGradient1858"
       gradientUnits="userSpaceOnUse"
       gradientTransform="scale(0.965451,1.035785)"
       cx="44.176689"
       cy="30.546623"
       fx="44.176689"
       fy="30.546623"
       r="69.292931" />
    <linearGradient
       id="linearGradient1843">
      <stop
         style="stop-color:#ffe6bb;stop-opacity:1.0000000;"
         offset="0.0000000"
         id="stop1844" />
      <stop
         style="stop-color:#ff933d;stop-opacity:1.0000000;"
         offset="1.0000000"
         id="stop1845" />
    </linearGradient>
    <linearGradient
       inkscape:collect="always"
       xlink:href="#linearGradient1853"
       id="linearGradient1852"
       gradientTransform="matrix(0.8059858,0,0,0.5666352,28.469196,28.467396)"
       x1="49.80574"
       y1="54.60796"
       x2="9.1116619"
       y2="15.821439"
       gradientUnits="userSpaceOnUse" />
    <linearGradient
       id="linearGradient1853">
      <stop
         offset="0.0000000"
         style="stop-color:#000000;stop-opacity:1.0000000;"
         id="stop1855" />
      <stop
         offset="1.0000000"
         style="stop-color:#3b91cd;stop-opacity:0.98969072;"
         id="stop1854" />
    </linearGradient>
    <radialGradient
       inkscape:collect="always"
       xlink:href="#linearGradient1843"
       id="radialGradient3350"
       gradientUnits="userSpaceOnUse"
       gradientTransform="matrix(0.35458109,0,0,0.37209043,-29.793442,46.502556)"
       cx="44.176689"
       cy="30.546623"
       fx="44.176689"
       fy="30.546623"
       r="69.292931" />
    <linearGradient
       inkscape:collect="always"
       xlink:href="#linearGradient3270"
       id="linearGradient3357"
       gradientUnits="userSpaceOnUse"
       gradientTransform="matrix(-0.41942235,0,0,0.30120835,30.419707,44.52148)"
       x1="47.021523"
       y1="56.093071"
       x2="29.645281"
       y2="8.8909264" />
    <linearGradient
       id="linearGradient3270">
      <stop
         id="stop3272"
         style="stop-color:#610000;stop-opacity:1;"
         offset="0" />
      <stop
         id="stop3274"
         style="stop-color:#ed0000;stop-opacity:1;"
         offset="1" />
    </linearGradient>
  </defs>
  <sodipodi:namedview
     id="base"
     pagecolor="#ffffff"
     bordercolor="#666666"
     borderopacity="1.0"
     gridtolerance="10000"
     guidetolerance="10"
     objecttolerance="10"
     inkscape:pageopacity="0.0"
     inkscape:pageshadow="2"
     inkscape:zoom="1.4"
     inkscape:cx="123.57143"
     inkscape:cy="108.57143"
     inkscape:document-units="px"
     inkscape:current-layer="layer1"
     showgrid="false"
     inkscape:window-width="1920"
     inkscape:window-height="921"
     inkscape:window-x="0"
     inkscape:window-y="0"
     showguides="true"
     inkscape:guide-bbox="true"
     inkscape:window-maximized="1"
     inkscape:pagecheckerboard="0" />
  <metadata
     id="metadata7">
    <rdf:RDF>
      <cc:Work
         rdf:about="">
        <dc:format>image/svg+xml</dc:format>
        <dc:type
           rdf:resource="http://purl.org/dc/dcmitype/StillImage" />
        <cc:license
           rdf:resource="http://artlibre.org/licence/lal" />
      </cc:Work>
      <cc:License
         rdf:about="http://creativecommons.org/licenses/by-sa/3.0/">
        <cc:permits
           rdf:resource="http://creativecommons.org/ns#Reproduction" />
        <cc:permits
           rdf:resource="http://creativecommons.org/ns#Distribution" />
        <cc:requires
           rdf:resource="http://creativecommons.org/ns#Notice" />
        <cc:requires
           rdf:resource="http://creativecommons.org/ns#Attribution" />
        <cc:permits
           rdf:resource="http://creativecommons.org/ns#DerivativeWorks" />
        <cc:requires
           rdf:resource="http://creativecommons.org/ns#ShareAlike" />
      </cc:License>
    </rdf:RDF>
  </metadata>
  <g
     inkscape:label="Layer 1"
     inkscape:groupmode="layer"
     id="layer1">
    <path
       transform="matrix(0.94667833,0,0,0.94667833,3.7481915,3.7189939)"
       style="fill:#593a28;fill-opacity:1;stroke:none"
       d="M 66.28125,-1.84375 C 47.832514,-2.118369 25.564663,4.5817217 15.875,7.53125 c -5.057431,-0.6675773 -9.7261862,1.4706637 -12.5625,4.5 -5.305471,7.807884 -7.7539694,17.789133 -5.1875,27 2.27781783,6.483774 6.5908498,13.1835 11.8125,19.65625 10.4433,12.945501 24.257106,24.874969 35.4375,29.25 9.094824,3.55892 17.067342,1.831502 21.4375,-2.75 2.297743,-1.410122 3.862378,-8.273416 5.96875,-14.75 1.635464,-1.83165 4.42395,-4.709135 7.15625,-7.625 1.504832,-1.605931 2.906677,-3.164124 4.0625,-4.5625 0.577911,-0.699188 1.104789,-1.346542 1.5625,-2.03125 0.457711,-0.684708 0.940879,-1.143581 1.25,-2.84375 -0.01574,0.08655 0.378368,-1.551782 0.84375,-3.34375 0.465382,-1.791968 1.05526,-4.049664 1.59375,-6.3125 0.53849,-2.262836 1.03407,-4.536081 1.34375,-6.53125 0.15484,-0.997584 0.287284,-1.898384 0.3125,-2.84375 0.02522,-0.945366 0.372143,-1.81726 -0.84375,-3.84375 0.07895,0.131581 -0.65797,-1.86186 -1.6875,-3.875 -0.514765,-1.00657 -1.172642,-2.156537 -2.46875,-3.25 -1.296108,-1.093463 -3.642055,-1.915339 -5.71875,-1.5 -2.499904,0.49998 -4.743656,2.320826 -5.6875,3.90625 -0.943844,1.585424 -1.199924,2.584242 -1.0625,2.34375 -0.485801,0.844313 -0.696818,1.84387 -0.59375,2.8125 0.094,0.892978 0.312646,1.721512 0.5,2.625 -3.092311,-0.07644 -5.837758,1.669643 -7.59375,3.875 -2.146852,2.696239 -3.40625,6.330411 -3.40625,10.53125 0,1.0347 -0.05802,1.315728 -0.0625,2.0625 C 56.022719,43.009709 48.441747,34.996642 40.46875,26.96875 46.427569,25.581226 53.353376,23.879055 60.71875,21.75 66.242013,20.15343 71.61334,18.410197 76.125,16.59375 81.436328,14.68852 87.438099,11.254415 90.283106,7.7019672 85.617355,0.3501864 74.821402,-1.4384326 66.28125,-1.84375 z"
       id="path3726"
       sodipodi:nodetypes="ccccssccssssssssssssssscssccsccc" />
    <path
       sodipodi:nodetypes="csssss"
       id="path3662"
       d="M 7.2399568,26.016758 C -4.5445779,38.603277 30.211642,75.774103 48.289592,82.848235 c 7.413733,2.901089 12.822132,1.268544 15.506263,-1.545394 2.574967,-2.699495 1.289753,-6.706264 -0.06,-9.482811 C 61.212838,66.629979 23.194791,25.797248 18.159487,23.751656 13.124184,21.706064 9.9616379,23.109856 7.2399568,26.016758 z"
       style="fill:url(#linearGradient3664);fill-opacity:1;stroke:none" />
    <path
       style="fill:url(#linearGradient3730);stroke:none"
       d="M 68.616348,68.260898 C 71.8651,64.470686 81.25039,55.446369 81.611362,53.461021 81.972334,51.475672 86.304006,36.675794 85.221088,34.87093 84.138171,33.066068 83.23574,28.192937 80.528444,28.734396 c -2.707294,0.541458 -2.707294,2.526808 -3.42924,3.790212 0.360972,3.429239 4.151186,13.897448 -0.541459,14.077933 -4.692645,0.180487 -3.970699,-4.87313 -2.707294,-6.677994 -2.887782,-0.902432 -6.677994,3.068268 -6.677994,9.204802 0,6.136535 -0.180487,8.302371 -3.248753,12.273069 -3.068268,3.970699 4.33167,6.136535 4.692644,6.85848 z"
       id="path3631" />
    <path
       style="fill:url(#linearGradient3732);fill-opacity:1;stroke:none"
       d="M 18.825856,15.390207 C 30.689374,11.771083 69.030207,0.31677584 82.693834,10.512256 76.428047,17.570312 34.914737,26.404935 30.364346,27.349053 23.863788,22.628456 18.500829,15.232854 18.825856,15.390207 z"
       id="path3600"
       sodipodi:nodetypes="cccc" />
    <path
       style="fill:url(#linearGradient3623);fill-opacity:1;stroke:none"
       d="m 34.343855,14.299414 2.601241,11.666782 C 41.43031,25.035599 75.212131,17.816397 82.368805,10.811228 71.260075,6.0401812 49.527265,10.679097 34.343855,14.299414 z"
       id="path3612"
       sodipodi:nodetypes="cccc" />
    <path
       style="fill:#c2c2c2;stroke:none"
       d="M 8.2389065,21.464407 6.3087151,26.983881 C 3.3185639,34.868918 11.318081,49.323703 26.838643,65.167487 45.442427,84.158703 59.255861,84.55297 64.881369,79.469543 l 2.269492,-6.503522 C 64.700525,76.525493 59.347519,79.746829 51.407529,77.234483 36.375352,72.478049 12.658212,43.399113 10.167854,31.586837 9.4911666,28.377173 7.9740073,24.467238 8.2389065,21.464407 z"
       id="path2826"
       sodipodi:nodetypes="ccsccssc" />
    <path
       style="fill:url(#linearGradient3643);fill-opacity:1;stroke:none"
       d="m 49.560661,8.6214352 c 3.550043,2.7047958 8.452484,0.042262 9.297733,-1.098823 -2.62027,-0.042262 -7.776286,0.5916738 -9.297733,1.098823 z"
       id="path3635"
       sodipodi:nodetypes="ccc" />
    <path
       sodipodi:nodetypes="ccc"
       id="path3645"
       d="m 80.795572,53.382448 c -4.458827,0.193861 -6.521566,5.377308 -6.4407,6.795045 2.04035,-1.644559 5.596273,-5.431614 6.4407,-6.795045 z"
       style="fill:url(#linearGradient3647);fill-opacity:1;stroke:none" />
    <path
       style="fill:#7a889e;stroke:none"
       d="m 7.1503167,24.634669 -0.4733392,1.301682 c 0.4022291,7.693339 4.3232535,18.546382 20.5015025,35.234185 7.609345,7.849009 15.321897,13.875178 22.217357,16.862707 3.447731,1.493764 6.672303,2.244199 9.614702,2.041275 2.419426,-0.166856 4.635811,-0.984473 6.537997,-2.514614 l 0.443756,-1.2721 c -1.982068,1.94417 -4.335704,2.951346 -7.011336,3.135873 -2.799074,0.19304 -5.93809,-0.517353 -9.318865,-1.982108 C 42.900541,74.512058 35.22357,68.537011 27.65182,60.72678 10.842974,43.388521 7.4162793,32.514913 7.2982352,24.960089 l 0,-0.32542 -0.1479185,0 z"
       id="path3668" />
    <path
       style="fill:#7a889e;stroke:none"
       d="m 6.3219731,26.942196 0,0.02959 c -0.230335,0.607395 -0.4014236,1.269531 -0.5029228,1.952525 0.8902694,8.144827 6.0831487,19.25138 20.5310867,34.16917 7.373392,7.613179 15.202536,13.52241 22.276524,16.448537 3.536994,1.463063 6.888386,2.192378 9.910539,1.982107 2.402495,-0.167156 4.577339,-0.934006 6.449246,-2.366696 l 0.443756,-1.272098 c -1.948588,1.821773 -4.283326,2.772681 -6.95217,2.958369 C 55.594351,81.04433 52.334146,80.356442 48.863331,78.920754 41.921701,76.049376 34.153035,70.188055 26.823476,62.620137 11.243281,46.533268 6.5454908,35.006449 6.3219731,26.942196 z"
       id="path3693" />
    <path
       style="fill:url(#linearGradient3740);fill-opacity:1.0;stroke:none"
       d="M 10.108825,18.127369 C -1.6757093,30.713888 33.319583,70.155901 51.397533,77.230034 65.923484,82.914224 70.437276,69.362371 67.919624,64.169713 65.401971,58.977057 26.063659,17.907859 21.028356,15.862267 15.993053,13.816675 12.830506,15.220466 10.108825,18.127369 z"
       id="path2822"
       sodipodi:nodetypes="cssss" />
    <path
       style="fill:none;stroke:#ffffff;stroke-width:3;stroke-linecap:butt;stroke-linejoin:miter;stroke-miterlimit:4;stroke-opacity:1;stroke-dasharray:none"
       d="m 20.196266,39.022357 10.124591,-7.453284 8.374695,7.65089 -1.029728,8.798456 -9.330538,0.507163 -8.13902,-9.503225 z"
       id="path3625"
       sodipodi:nodetypes="cccccc" />
    <path
       style="fill:none;stroke:#ffffff;stroke-width:3;stroke-linecap:butt;stroke-linejoin:miter;stroke-miterlimit:4;stroke-opacity:1;stroke-dasharray:none"
       d="m 26.591272,42.478202 2.068974,-4.70221 3.949856,0"
       id="path3627" />
    <path
       style="fill:none;stroke:#ffffff;stroke-width:3;stroke-linecap:butt;stroke-linejoin:miter;stroke-miterlimit:4;stroke-opacity:1;stroke-dasharray:none"
       d="m 30.334007,45.962596 1.880884,-4.514122 3.949858,-0.188089"
       id="path3629" />
    <g
       id="g2246"
       transform="matrix(0.48592282,0,0,0.49637116,0.00628004,46.25998)">
      <path
         id="path1065"
         d="m 57.609291,40.89149 c -12.312883,0 -22.302453,10.508585 -22.302452,23.457753 0,0.512968 0.10428,0.988583 0.135165,1.493393 -0.822037,-0.291441 -1.637074,-0.416595 -2.320355,-0.137852 -2.527656,1.031146 -4.049213,10.055786 0.247805,11.602512 2.537455,0.913357 4.396042,0.698962 5.699515,0.0919 4.004086,6.278777 10.816669,10.407798 18.540322,10.407798 12.312882,0 22.302452,-10.50858 22.302452,-23.457752 0,-12.949172 -9.989569,-23.457753 -22.302452,-23.457752 z"
         style="fill:#000000;fill-opacity:0.25;stroke:none;stroke-width:3.3125;stroke-miterlimit:4;stroke-opacity:1" />
      <ellipse
         transform="matrix(0.7057667,0,0,0.6757958,29.672666,32.19421)"
         id="path1857"
         style="fill:url(#radialGradient1858);fill-opacity:1;stroke:#b01911;stroke-width:3.3125;stroke-miterlimit:4;stroke-opacity:1"
         cx="41.900459"
         cy="42.664753"
         rx="29.628359"
         ry="31.907463" />
      <circle
         transform="matrix(0.6757958,0,0,0.6757958,50.921262,34.164187)"
         id="path1167"
         style="fill:#ffffff;fill-opacity:1;stroke:#000000;stroke-width:1.875;stroke-miterlimit:4;stroke-opacity:1"
         cx="36.446281"
         cy="34.214874"
         r="11.652892" />
      <circle
         transform="matrix(0.7955678,0,0,0.7955678,32.314041,31.574183)"
         id="path1789"
         style="fill:#ffffff;fill-opacity:1;stroke:#000000;stroke-width:1.875;stroke-miterlimit:4;stroke-opacity:1"
         cx="36.446281"
         cy="34.214874"
         r="11.652892" />
      <ellipse
         transform="matrix(0.6757958,0,0,0.6757958,29.139408,30.478028)"
         id="path1806"
         style="fill:#000000;fill-opacity:1;stroke:none;stroke-width:1.875;stroke-miterlimit:4;stroke-opacity:1"
         cx="44.132233"
         cy="43.140495"
         rx="4.9586778"
         ry="5.2066116" />
      <ellipse
         transform="matrix(0.6757958,0,0,0.6757958,45.559572,28.802502)"
         id="path1805"
         style="fill:#000000;fill-opacity:1;stroke:none;stroke-width:1.875;stroke-miterlimit:4;stroke-opacity:1"
         cx="44.132233"
         cy="43.140495"
         rx="4.9586778"
         ry="5.2066116" />
      <path
         sodipodi:nodetypes="cccccccccccccc"
         id="path1807"
         d="m 53.177981,67.767924 c -0.173175,0.01627 -0.339834,0.07424 -0.485729,0.168949 0,0 -1.421515,0.872432 -2.703182,2.154099 -0.640834,0.640834 -1.268736,1.380495 -1.668372,2.259692 -0.399635,0.879198 -0.545927,2.012582 -0.04224,3.019963 0.166611,0.355296 0.51326,0.591872 0.904842,0.617524 0.391582,0.02565 0.766131,-0.163682 0.977668,-0.494207 0.211537,-0.330525 0.226587,-0.749938 0.03928,-1.094774 -0.166521,-0.33304 -0.814424,-0.637293 -0.585737,-1.140405 0.228687,-0.503112 0.190188,-1.115217 0.722222,-1.647253 1.064071,-1.06407 2.155496,-1.858438 2.155496,-1.858438 0.41822,-0.263902 1.943441,-0.778675 1.788558,-1.248317 -0.154881,-0.469642 -0.609652,-0.773492 -1.102814,-0.736833 z"
         style="fill:#000000;fill-opacity:1;fill-rule:evenodd;stroke:none;stroke-width:3.1875;stroke-linecap:round;stroke-linejoin:round;stroke-miterlimit:4;stroke-opacity:1" />
      <path
         sodipodi:nodetypes="ccccccccc"
         id="path1808"
         d="m 50.662073,69.834756 -1.773964,1.605016 0.802508,0.9081 c 0,0 7.31559,7.990058 16.451404,3.9703 l 1.119287,-0.485728 -0.468799,-0.52081 -1.286839,0.485729 c -9.294983,3.35256 -14.019971,-5.075625 -14.019971,-5.075625 z"
         style="fill:#000000;fill-opacity:1;fill-rule:evenodd;stroke:none;stroke-width:3.5625;stroke-linecap:square;stroke-linejoin:round;stroke-miterlimit:4;stroke-opacity:1" />
      <path
         sodipodi:nodetypes="ccccccccccccc"
         id="path1848"
         d="m 48.575519,47.400849 c 0.335105,2.010632 1.34042,5.696791 0,10.723371 -3.351055,5.02658 -8.71274,10.723371 -8.71274,10.723371 -1.340421,0.670212 -5.361686,-2.680843 -6.031896,-10.05316 -0.670211,-7.372318 2.345737,-16.755268 6.702107,-17.090374 2.680842,-1.675526 3.015948,-2.345737 3.015948,-2.345737 0,0 0,-2.010632 2.680843,-3.686159 2.680843,-1.675527 10.053161,-5.361685 17.090374,-2.680843 7.037211,2.680843 9.047843,10.723371 15.07974,9.047845 6.031896,-1.675528 9.382951,-3.686159 9.382951,-3.686159 0,0 0.670211,7.037213 -4.35637,11.058477 -5.02658,4.021264 -7.372318,6.031897 -15.079742,5.02658 -7.707423,-1.005316 -16.755267,-6.031897 -19.771215,-7.037212 z"
         style="fill:url(#linearGradient1852);fill-opacity:1;fill-rule:evenodd;stroke:none;stroke-width:0.25pt;stroke-linecap:butt;stroke-linejoin:miter;stroke-opacity:1" />
      <path
         id="path1859"
         d="m 42.686513,65.119581 c 0,0 -4.02824,-3.791284 -6.397792,-2.843463 -2.369553,0.947821 -3.791284,9.241255 0.236955,10.662986 4.028239,1.421733 6.397792,0 7.108658,-1.421731"
         style="fill:#ffb978;fill-opacity:1;fill-rule:evenodd;stroke:#b01911;stroke-width:2.492;stroke-linecap:round;stroke-linejoin:miter;stroke-miterlimit:4;stroke-opacity:1" />
    </g>
    <path
       id="path2211"
       d="m 15.255661,51.1258 c 6.407432,0 11.605848,5.586086 11.605848,12.469523 0,0.27268 -0.05424,0.525505 -0.07035,0.793848 0.427774,-0.154923 0.851903,-0.221451 1.207477,-0.07328 1.315356,0.54813 2.107149,5.34539 -0.128956,6.167589 -1.320452,0.485517 -2.287633,0.37155 -2.965934,0.04885 -2.083668,3.337632 -5.628826,5.532511 -9.648095,5.532511 -6.4074331,0 -11.6058481,-5.586084 -11.6058481,-12.469522 0,-6.883438 5.198415,-12.469523 11.6058481,-12.469523 z"
       style="fill:#000000;fill-opacity:0.25;stroke:none;stroke-width:1.61869;stroke-miterlimit:4;stroke-opacity:1" />
    <ellipse
       transform="scale(-1,1)"
       id="path2213"
       style="fill:url(#radialGradient3350);fill-opacity:1;stroke:#b01911;stroke-width:1.2032;stroke-miterlimit:4;stroke-opacity:1"
       cx="-14.404667"
       cy="61.829231"
       rx="10.881604"
       ry="11.462284" />
    <ellipse
       transform="scale(-1,1)"
       id="path2215"
       style="fill:#ffffff;fill-opacity:1;stroke:#000000;stroke-width:0.703907;stroke-miterlimit:4;stroke-opacity:1"
       cx="-6.1677289"
       cy="60.0952"
       rx="4.3283954"
       ry="4.4214649" />
    <ellipse
       transform="scale(-1,1)"
       id="path2217"
       style="fill:#ffffff;fill-opacity:1;stroke:#000000;stroke-width:0.736461;stroke-miterlimit:4;stroke-dasharray:none;stroke-opacity:1"
       cx="-13.650148"
       cy="60.315617"
       rx="4.5281067"
       ry="4.6254702" />
    <ellipse
       transform="scale(-1,1)"
       id="path2219"
       style="fill:#000000;fill-opacity:1;stroke:none;stroke-width:0.666441;stroke-miterlimit:4;stroke-opacity:1"
       cx="-14.977509"
       cy="60.65197"
       rx="1.7438357"
       ry="1.8703983" />
    <ellipse
       transform="scale(-1,1)"
       id="path2221"
       style="fill:#000000;fill-opacity:1;stroke:none;stroke-width:0.666441;stroke-miterlimit:4;stroke-opacity:1"
       cx="-6.8594365"
       cy="60.633083"
       rx="1.7438357"
       ry="1.8703983" />
    <path
       style="fill:#000000;fill-opacity:1;fill-rule:evenodd;stroke:none;stroke-width:1.55761;stroke-linecap:round;stroke-linejoin:round;stroke-miterlimit:4;stroke-opacity:1"
       d="m 17.914391,66.465841 c 0,0 0.244901,0.188726 0.559039,0.463019 l -0.0302,0.0463 c 0,0 -2.460726,4.483075 -7.297687,2.700943 l -0.664804,-0.246943 -0.241742,0.277811 0.574141,0.246944 c 4.496248,2.020885 8.108654,-1.61564 8.49131,-2.02185 0.03863,0.138463 0.05075,0.277656 0.105766,0.401284 -0.124331,0.614069 1.442322,1.569816 0.679906,-0.478453 -0.20797,-0.467356 -0.542852,-0.863197 -0.876332,-1.203847 -0.604889,-0.853053 -1.921741,-1.016584 -1.299382,-0.185208 z"
       id="path2223"
       sodipodi:nodetypes="cccccccccccc" />
    <path
       sodipodi:nodetypes="cccccscsscsscccc"
       id="path2227"
       d="m 19.956695,54.586003 c -0.174386,1.068799 -0.697535,3.028264 0,5.700261 1.743834,2.671998 4.533967,5.700261 4.533967,5.700261 0.697543,0.356268 1.184462,2.302664 1.533233,-1.616265 2.495766,-1.584653 2.33535,-3.436604 1.872434,-5.847664 0.494165,-0.22409 2.148977,-0.80125 2.647063,0.711867 0.568071,1.725695 4.273972,6.456884 7.911397,1.611644 -3.676829,0.02893 -1.736116,-4.080605 -2.735097,-7.371986 -1.288739,-4.246068 -3.45912,-4.515319 -5.318964,-4.41663 -2.708132,0.1437 -3.423877,0.972555 -5.27898,3.349999 -2.709424,-3.817552 -7.396532,-5.08959 -11.816138,-4.661113 -5.3247141,0.516227 -8.5692391,1.836306 -11.1195241,6.748162 -1.30826296,2.519716 -2.32492386,6.521051 -1.048013,8.692439 0.459452,-5.147486 1.553185,-5.390554 2.580345,-6.63752 2.615755,2.137597 3.763456,1.491641 7.7742731,0.957241 4.010825,-0.534399 6.894555,-2.386296 8.464004,-2.920696 z"
       style="fill:url(#linearGradient3357);fill-opacity:1.0;fill-rule:evenodd;stroke:none;stroke-width:0.122166pt;stroke-linecap:butt;stroke-linejoin:miter;stroke-opacity:1" />
    <path
       id="path2229"
       d="m 23.021243,64.004814 c 0,0 2.096229,-2.015346 3.329307,-1.51151 1.233079,0.503837 1.972929,4.912408 -0.123307,5.668162 -2.096228,0.755756 -3.329314,0 -3.699236,-0.755754"
       style="fill:#ffb978;fill-opacity:1;fill-rule:evenodd;stroke:#b01911;stroke-width:1.31066;stroke-linecap:round;stroke-linejoin:miter;stroke-miterlimit:4;stroke-opacity:1" />
    <path
       style="fill:#593a28;fill-opacity:1;fill-rule:evenodd;stroke:none;stroke-width:0.488661px;stroke-linecap:butt;stroke-linejoin:miter;stroke-opacity:1"
       d="m 24.160841,51.360151 c 0.237205,-0.503243 1.386721,-0.428689 1.514442,0.205025 0.291943,0.894655 0.72986,4.95788 3.065384,6.747189 0.195695,0.559644 -0.149417,1.013384 -0.729852,1.006487 -1.240753,-0.410051 -4.068932,-4.305527 -3.849974,-7.958701 z"
       id="path3276"
       sodipodi:nodetypes="ccccc" />
  </g>
</svg>
