<?xml version="1.0" encoding="UTF-8" standalone="no"?>
<!-- Created with Inkscape (http://www.inkscape.org/) -->

<svg
   width="90"
   height="90"
   id="svg2"
   sodipodi:version="0.32"
   inkscape:version="1.1.2 (0a00cf5339, 2022-02-04)"
   version="1.0"
   sodipodi:docname="miaz-settings-plugins-system.svg"
   inkscape:output_extension="org.inkscape.output.svg.inkscape"
   xmlns:inkscape="http://www.inkscape.org/namespaces/inkscape"
   xmlns:sodipodi="http://sodipodi.sourceforge.net/DTD/sodipodi-0.dtd"
   xmlns:xlink="http://www.w3.org/1999/xlink"
   xmlns="http://www.w3.org/2000/svg"
   xmlns:svg="http://www.w3.org/2000/svg"
   xmlns:rdf="http://www.w3.org/1999/02/22-rdf-syntax-ns#"
   xmlns:cc="http://creativecommons.org/ns#"
   xmlns:dc="http://purl.org/dc/elements/1.1/">
  <defs
     id="defs4">
    <linearGradient
       inkscape:collect="always"
       id="linearGradient3651">
      <stop
         style="stop-color:#ed0000;stop-opacity:1;"
         offset="0"
         id="stop3653" />
      <stop
         style="stop-color:#b01911;stop-opacity:1"
         offset="1"
         id="stop3655" />
    </linearGradient>
    <linearGradient
       inkscape:collect="always"
       id="linearGradient3637">
      <stop
         style="stop-color:#7a889e;stop-opacity:1;"
         offset="0"
         id="stop3639" />
      <stop
         style="stop-color:#7a889e;stop-opacity:0;"
         offset="1"
         id="stop3641" />
    </linearGradient>
    <linearGradient
       inkscape:collect="always"
       id="linearGradient3617">
      <stop
         style="stop-color:#ffffff;stop-opacity:1;"
         offset="0"
         id="stop3619" />
      <stop
         style="stop-color:#c2c2c2;stop-opacity:1"
         offset="1"
         id="stop3621" />
    </linearGradient>
    <linearGradient
       inkscape:collect="always"
       id="linearGradient3604">
      <stop
         style="stop-color:#9b9a9a;stop-opacity:1"
         offset="0"
         id="stop3606" />
      <stop
         style="stop-color:#c2c2c2;stop-opacity:1"
         offset="1"
         id="stop3608" />
    </linearGradient>
    <linearGradient
       inkscape:collect="always"
       xlink:href="#linearGradient3617"
       id="linearGradient3623"
       x1="43.164982"
       y1="-3.4108975"
       x2="47.32143"
       y2="21.071428"
       gradientUnits="userSpaceOnUse"
       gradientTransform="matrix(0.91007805,0,0,0.88117818,3.8745747,2.3298874)" />
    <linearGradient
       inkscape:collect="always"
       xlink:href="#linearGradient3637"
       id="linearGradient3643"
       x1="53.214287"
       y1="4.1964288"
       x2="53.392857"
       y2="6.455399"
       gradientUnits="userSpaceOnUse"
       gradientTransform="matrix(0.94667833,0,0,0.94667833,3.7481915,3.7189939)" />
    <linearGradient
       inkscape:collect="always"
       xlink:href="#linearGradient3637"
       id="linearGradient3647"
       gradientUnits="userSpaceOnUse"
       x1="53.214287"
       y1="4.1964288"
       x2="53.392857"
       y2="6.455399"
       gradientTransform="matrix(-0.72738624,0.60589531,-0.60589531,-0.72738624,119.13354,27.828264)" />
    <linearGradient
       inkscape:collect="always"
       xlink:href="#linearGradient3651"
       id="linearGradient3664"
       gradientUnits="userSpaceOnUse"
       x1="39.107143"
       y1="41.964287"
       x2="25.892857"
       y2="60.17857"
       gradientTransform="matrix(0.94667833,0,0,0.94667833,0.87932291,11.608382)" />
    <linearGradient
       inkscape:collect="always"
       xlink:href="#linearGradient3604"
       id="linearGradient3730"
       gradientUnits="userSpaceOnUse"
       x1="62.779778"
       y1="43.707336"
       x2="74.512352"
       y2="53.707336"
       gradientTransform="matrix(0.94667833,0,0,0.94667833,3.7481915,3.7189939)" />
    <linearGradient
       inkscape:collect="always"
       xlink:href="#linearGradient3604"
       id="linearGradient3732"
       gradientUnits="userSpaceOnUse"
       gradientTransform="matrix(0.91007805,0,0,0.88117818,3.8745747,2.3298874)"
       x1="49.466862"
       y1="19.64887"
       x2="48.549885"
       y2="4.6013727" />
    <linearGradient
       inkscape:collect="always"
       xlink:href="#linearGradient3651"
       id="linearGradient3740"
       gradientUnits="userSpaceOnUse"
       x1="39.107143"
       y1="41.964287"
       x2="23.629303"
       y2="69.610046"
       gradientTransform="matrix(0.94667833,0,0,0.94667833,3.7481915,3.7189939)" />
    <linearGradient
       id="linearGradient1843">
      <stop
         style="stop-color:#ffe6bb;stop-opacity:1.0000000;"
         offset="0.0000000"
         id="stop1844" />
      <stop
         style="stop-color:#ff933d;stop-opacity:1.0000000;"
         offset="1.0000000"
         id="stop1845" />
    </linearGradient>
    <linearGradient
       id="linearGradient1853">
      <stop
         offset="0.0000000"
         style="stop-color:#000000;stop-opacity:1.0000000;"
         id="stop1855" />
      <stop
         offset="1.0000000"
         style="stop-color:#3b91cd;stop-opacity:0.98969072;"
         id="stop1854" />
    </linearGradient>
    <linearGradient
       id="linearGradient3270">
      <stop
         id="stop3272"
         style="stop-color:#610000;stop-opacity:1;"
         offset="0" />
      <stop
         id="stop3274"
         style="stop-color:#ed0000;stop-opacity:1;"
         offset="1" />
    </linearGradient>
    <linearGradient
       inkscape:collect="always"
       xlink:href="#linearGradient1828"
       id="linearGradient1857"
       gradientUnits="userSpaceOnUse"
       gradientTransform="matrix(0.99999,0,0,1.00001,-0.701263,-7.713892)"
       x1="32.051327"
       y1="14.657825"
       x2="32.051327"
       y2="75.934349" />
    <linearGradient
       id="linearGradient1828">
      <stop
         style="stop-color:#ffc93f;stop-opacity:1.0000000;"
         offset="0.0000000"
         id="stop1829" />
      <stop
         style="stop-color:#f1e36c;stop-opacity:1.0000000;"
         offset="1.0000000"
         id="stop1830" />
    </linearGradient>
  </defs>
  <sodipodi:namedview
     id="base"
     pagecolor="#ffffff"
     bordercolor="#666666"
     borderopacity="1.0"
     gridtolerance="10000"
     guidetolerance="10"
     objecttolerance="10"
     inkscape:pageopacity="0.0"
     inkscape:pageshadow="2"
     inkscape:zoom="5.6"
     inkscape:cx="88.571429"
     inkscape:cy="60.535714"
     inkscape:document-units="px"
     inkscape:current-layer="layer1"
     showgrid="false"
     inkscape:window-width="1920"
     inkscape:window-height="921"
     inkscape:window-x="0"
     inkscape:window-y="0"
     showguides="true"
     inkscape:guide-bbox="true"
     inkscape:window-maximized="1"
     inkscape:pagecheckerboard="0" />
  <metadata
     id="metadata7">
    <rdf:RDF>
      <cc:Work
         rdf:about="">
        <dc:format>image/svg+xml</dc:format>
        <dc:type
           rdf:resource="http://purl.org/dc/dcmitype/StillImage" />
        <cc:license
           rdf:resource="http://artlibre.org/licence/lal" />
      </cc:Work>
      <cc:License
         rdf:about="http://creativecommons.org/licenses/by-sa/3.0/">
        <cc:permits
           rdf:resource="http://creativecommons.org/ns#Reproduction" />
        <cc:permits
           rdf:resource="http://creativecommons.org/ns#Distribution" />
        <cc:requires
           rdf:resource="http://creativecommons.org/ns#Notice" />
        <cc:requires
           rdf:resource="http://creativecommons.org/ns#Attribution" />
        <cc:permits
           rdf:resource="http://creativecommons.org/ns#DerivativeWorks" />
        <cc:requires
           rdf:resource="http://creativecommons.org/ns#ShareAlike" />
      </cc:License>
    </rdf:RDF>
  </metadata>
  <g
     inkscape:label="Layer 1"
     inkscape:groupmode="layer"
     id="layer1">
    <path
       transform="matrix(0.94667833,0,0,0.94667833,3.7481915,3.7189939)"
       style="fill:#593a28;fill-opacity:1;stroke:none"
       d="M 66.28125,-1.84375 C 47.832514,-2.118369 25.564663,4.5817217 15.875,7.53125 c -5.057431,-0.6675773 -9.7261862,1.4706637 -12.5625,4.5 -5.305471,7.807884 -7.7539694,17.789133 -5.1875,27 2.27781783,6.483774 6.5908498,13.1835 11.8125,19.65625 10.4433,12.945501 24.257106,24.874969 35.4375,29.25 9.094824,3.55892 17.067342,1.831502 21.4375,-2.75 2.297743,-1.410122 3.862378,-8.273416 5.96875,-14.75 1.635464,-1.83165 4.42395,-4.709135 7.15625,-7.625 1.504832,-1.605931 2.906677,-3.164124 4.0625,-4.5625 0.577911,-0.699188 1.104789,-1.346542 1.5625,-2.03125 0.457711,-0.684708 0.940879,-1.143581 1.25,-2.84375 -0.01574,0.08655 0.378368,-1.551782 0.84375,-3.34375 0.465382,-1.791968 1.05526,-4.049664 1.59375,-6.3125 0.53849,-2.262836 1.03407,-4.536081 1.34375,-6.53125 0.15484,-0.997584 0.287284,-1.898384 0.3125,-2.84375 0.02522,-0.945366 0.372143,-1.81726 -0.84375,-3.84375 0.07895,0.131581 -0.65797,-1.86186 -1.6875,-3.875 -0.514765,-1.00657 -1.172642,-2.156537 -2.46875,-3.25 -1.296108,-1.093463 -3.642055,-1.915339 -5.71875,-1.5 -2.499904,0.49998 -4.743656,2.320826 -5.6875,3.90625 -0.943844,1.585424 -1.199924,2.584242 -1.0625,2.34375 -0.485801,0.844313 -0.696818,1.84387 -0.59375,2.8125 0.094,0.892978 0.312646,1.721512 0.5,2.625 -3.092311,-0.07644 -5.837758,1.669643 -7.59375,3.875 -2.146852,2.696239 -3.40625,6.330411 -3.40625,10.53125 0,1.0347 -0.05802,1.315728 -0.0625,2.0625 C 56.022719,43.009709 48.441747,34.996642 40.46875,26.96875 46.427569,25.581226 53.353376,23.879055 60.71875,21.75 66.242013,20.15343 71.61334,18.410197 76.125,16.59375 81.436328,14.68852 87.438099,11.254415 90.283106,7.7019672 85.617355,0.3501864 74.821402,-1.4384326 66.28125,-1.84375 z"
       id="path3726"
       sodipodi:nodetypes="ccccssccssssssssssssssscssccsccc" />
    <path
       sodipodi:nodetypes="csssss"
       id="path3662"
       d="M 7.2399568,26.016758 C -4.5445779,38.603277 30.211642,75.774103 48.289592,82.848235 c 7.413733,2.901089 12.822132,1.268544 15.506263,-1.545394 2.574967,-2.699495 1.289753,-6.706264 -0.06,-9.482811 C 61.212838,66.629979 23.194791,25.797248 18.159487,23.751656 13.124184,21.706064 9.9616379,23.109856 7.2399568,26.016758 z"
       style="fill:url(#linearGradient3664);fill-opacity:1;stroke:none" />
    <path
       style="fill:url(#linearGradient3730);stroke:none"
       d="M 68.616348,68.260898 C 71.8651,64.470686 81.25039,55.446369 81.611362,53.461021 81.972334,51.475672 86.304006,36.675794 85.221088,34.87093 84.138171,33.066068 83.23574,28.192937 80.528444,28.734396 c -2.707294,0.541458 -2.707294,2.526808 -3.42924,3.790212 0.360972,3.429239 4.151186,13.897448 -0.541459,14.077933 -4.692645,0.180487 -3.970699,-4.87313 -2.707294,-6.677994 -2.887782,-0.902432 -6.677994,3.068268 -6.677994,9.204802 0,6.136535 -0.180487,8.302371 -3.248753,12.273069 -3.068268,3.970699 4.33167,6.136535 4.692644,6.85848 z"
       id="path3631" />
    <path
       style="fill:url(#linearGradient3732);fill-opacity:1;stroke:none"
       d="M 18.825856,15.390207 C 30.689374,11.771083 69.030207,0.31677584 82.693834,10.512256 76.428047,17.570312 34.914737,26.404935 30.364346,27.349053 23.863788,22.628456 18.500829,15.232854 18.825856,15.390207 z"
       id="path3600"
       sodipodi:nodetypes="cccc" />
    <path
       style="fill:url(#linearGradient3623);fill-opacity:1;stroke:none"
       d="m 34.343855,14.299414 2.601241,11.666782 C 41.43031,25.035599 75.212131,17.816397 82.368805,10.811228 71.260075,6.0401812 49.527265,10.679097 34.343855,14.299414 z"
       id="path3612"
       sodipodi:nodetypes="cccc" />
    <path
       style="fill:#c2c2c2;stroke:none"
       d="M 8.2389065,21.464407 6.3087151,26.983881 C 3.3185639,34.868918 11.318081,49.323703 26.838643,65.167487 45.442427,84.158703 59.255861,84.55297 64.881369,79.469543 l 2.269492,-6.503522 C 64.700525,76.525493 59.347519,79.746829 51.407529,77.234483 36.375352,72.478049 12.658212,43.399113 10.167854,31.586837 9.4911666,28.377173 7.9740073,24.467238 8.2389065,21.464407 z"
       id="path2826"
       sodipodi:nodetypes="ccsccssc" />
    <path
       style="fill:url(#linearGradient3643);fill-opacity:1;stroke:none"
       d="m 49.560661,8.6214352 c 3.550043,2.7047958 8.452484,0.042262 9.297733,-1.098823 -2.62027,-0.042262 -7.776286,0.5916738 -9.297733,1.098823 z"
       id="path3635"
       sodipodi:nodetypes="ccc" />
    <path
       sodipodi:nodetypes="ccc"
       id="path3645"
       d="m 80.795572,53.382448 c -4.458827,0.193861 -6.521566,5.377308 -6.4407,6.795045 2.04035,-1.644559 5.596273,-5.431614 6.4407,-6.795045 z"
       style="fill:url(#linearGradient3647);fill-opacity:1;stroke:none" />
    <path
       style="fill:#7a889e;stroke:none"
       d="m 7.1503167,24.634669 -0.4733392,1.301682 c 0.4022291,7.693339 4.3232535,18.546382 20.5015025,35.234185 7.609345,7.849009 15.321897,13.875178 22.217357,16.862707 3.447731,1.493764 6.672303,2.244199 9.614702,2.041275 2.419426,-0.166856 4.635811,-0.984473 6.537997,-2.514614 l 0.443756,-1.2721 c -1.982068,1.94417 -4.335704,2.951346 -7.011336,3.135873 -2.799074,0.19304 -5.93809,-0.517353 -9.318865,-1.982108 C 42.900541,74.512058 35.22357,68.537011 27.65182,60.72678 10.842974,43.388521 7.4162793,32.514913 7.2982352,24.960089 l 0,-0.32542 -0.1479185,0 z"
       id="path3668" />
    <path
       style="fill:#7a889e;stroke:none"
       d="m 6.3219731,26.942196 0,0.02959 c -0.230335,0.607395 -0.4014236,1.269531 -0.5029228,1.952525 0.8902694,8.144827 6.0831487,19.25138 20.5310867,34.16917 7.373392,7.613179 15.202536,13.52241 22.276524,16.448537 3.536994,1.463063 6.888386,2.192378 9.910539,1.982107 2.402495,-0.167156 4.577339,-0.934006 6.449246,-2.366696 l 0.443756,-1.272098 c -1.948588,1.821773 -4.283326,2.772681 -6.95217,2.958369 C 55.594351,81.04433 52.334146,80.356442 48.863331,78.920754 41.921701,76.049376 34.153035,70.188055 26.823476,62.620137 11.243281,46.533268 6.5454908,35.006449 6.3219731,26.942196 z"
       id="path3693" />
    <path
       style="fill:url(#linearGradient3740);fill-opacity:1.0;stroke:none"
       d="M 10.108825,18.127369 C -1.6757093,30.713888 33.319583,70.155901 51.397533,77.230034 65.923484,82.914224 70.437276,69.362371 67.919624,64.169713 65.401971,58.977057 26.063659,17.907859 21.028356,15.862267 15.993053,13.816675 12.830506,15.220466 10.108825,18.127369 z"
       id="path2822"
       sodipodi:nodetypes="cssss" />
    <path
       style="fill:none;stroke:#ffffff;stroke-width:3;stroke-linecap:butt;stroke-linejoin:miter;stroke-miterlimit:4;stroke-opacity:1;stroke-dasharray:none"
       d="m 20.196266,39.022357 10.124591,-7.453284 8.374695,7.65089 -1.029728,8.798456 -9.330538,0.507163 -8.13902,-9.503225 z"
       id="path3625"
       sodipodi:nodetypes="cccccc" />
    <path
       style="fill:none;stroke:#ffffff;stroke-width:3;stroke-linecap:butt;stroke-linejoin:miter;stroke-miterlimit:4;stroke-opacity:1;stroke-dasharray:none"
       d="m 26.591272,42.478202 2.068974,-4.70221 3.949856,0"
       id="path3627" />
    <path
       style="fill:none;stroke:#ffffff;stroke-width:3;stroke-linecap:butt;stroke-linejoin:miter;stroke-miterlimit:4;stroke-opacity:1;stroke-dasharray:none"
       d="m 30.334007,45.962596 1.880884,-4.514122 3.949858,-0.188089"
       id="path3629" />
    <g
       id="g2547"
       transform="matrix(0.46587485,0,0,0.46587485,0.33441188,48.599871)">
      <path
         id="path1858"
         d="M 45.318751,7.3776937 C 42.43159,6.5443746 39.448495,8.191152 38.615176,11.078313 l -1.24006,4.296374 c -1.2128,0.03795 -2.404539,0.150626 -3.580232,0.375506 l -2.14768,-3.890466 C 30.194919,9.228949 26.892861,8.275879 24.262084,9.728164 l -2.849737,1.592682 c -2.630777,1.452285 -3.577146,4.731119 -2.12486,7.361897 l 2.13116,3.86054 c -0.828783,0.872905 -1.582278,1.809993 -2.271989,2.816087 l -4.20348,-1.213248 c -2.887162,-0.833319 -5.9001825,0.829979 -6.7335018,3.717139 l -0.904909,3.135193 c -0.8333197,2.887162 0.8366808,5.876959 3.7238428,6.710278 l 4.110585,1.186436 c 0.0322,1.256992 0.155548,2.492182 0.388438,3.709757 l -3.740834,2.065077 c -2.6307765,1.452285 -3.5771465,4.731119 -2.1248593,7.361896 l 1.5926823,2.849737 c 1.452284,2.630779 4.73112,3.577146 7.361897,2.12486 l 3.68098,-2.032036 c 0.917884,0.872368 1.893525,1.670657 2.958543,2.388582 l -1.159624,4.01769 c -0.833319,2.887161 0.813458,5.870257 3.700619,6.703575 l 3.135193,0.904909 c 2.887162,0.83332 5.870258,-0.813458 6.703575,-3.700618 l 1.166327,-4.040915 c 1.273467,-0.04136 2.514559,-0.181052 3.746386,-0.428183 l 2.032036,3.68098 c 1.452288,2.63078 4.731117,3.577144 7.361897,2.12486 l 2.866257,-1.562756 c 2.630778,-1.452288 3.58385,-4.754342 2.131563,-7.38512 l -2.048556,-3.710906 c 0.845879,-0.906211 1.608449,-1.885698 2.305504,-2.932206 l 4.110586,1.186436 c 2.88716,0.833319 5.870252,-0.813458 6.703575,-3.700619 l 0.904909,-3.135193 c 0.833319,-2.887161 -0.806754,-5.893479 -3.693916,-6.726798 l -4.203481,-1.213248 c -0.04767,-1.222783 -0.207661,-2.416436 -0.445177,-3.600342 l 3.86054,-2.131159 c 2.630779,-1.452285 3.577146,-4.73112 2.12486,-7.361897 L 64.99636,21.485274 c -1.452288,-2.630778 -4.731119,-3.577146 -7.361897,-2.12486 l -3.920393,2.164201 c -0.871879,-0.814654 -1.797442,-1.564861 -2.799567,-2.242063 l 1.24006,-4.296374 C 52.987882,12.099017 51.341105,9.115923 48.453944,8.282603 Z M 41.157054,27.636569 c 5.897315,1.702136 9.301622,7.868955 7.599484,13.766267 -1.702139,5.897315 -7.868956,9.301625 -13.766269,7.599487 -5.897314,-1.702138 -9.301624,-7.868957 -7.599485,-13.766272 1.702138,-5.897312 7.868955,-9.301621 13.76627,-7.599482 z"
         style="fill:#000000;fill-opacity:0.344444;stroke:none;stroke-width:3.86746;stroke-linecap:round;stroke-linejoin:round;stroke-miterlimit:4;stroke-opacity:1" />
      <path
         id="path1856"
         d="m 40.855941,2.9148838 c -2.887161,-0.8333191 -5.870256,0.813458 -6.703575,3.700619 l -1.24006,4.2963742 c -1.2128,0.03795 -2.404539,0.150626 -3.580232,0.375506 l -2.14768,-3.8904662 c -1.452285,-2.630778 -4.754343,-3.583848 -7.38512,-2.131563 l -2.849737,1.592682 c -2.630777,1.452285 -3.577146,4.7311192 -2.12486,7.3618972 l 2.13116,3.86054 c -0.828783,0.872905 -1.582278,1.809993 -2.271989,2.816087 l -4.20348,-1.213248 C 7.5932064,18.849993 4.5801856,20.513291 3.7468663,23.400451 l -0.904909,3.135193 c -0.8333197,2.887162 0.8366808,5.876959 3.7238423,6.710278 l 4.1105854,1.186436 c 0.0322,1.256992 0.155548,2.492182 0.388438,3.709757 l -3.7408335,2.065077 c -2.6307769,1.452285 -3.5771469,4.731119 -2.1248597,7.361896 l 1.5926818,2.849737 c 1.4522846,2.630779 4.7311204,3.577146 7.3618974,2.12486 l 3.68098,-2.032036 c 0.917884,0.872368 1.893525,1.670657 2.958543,2.388582 l -1.159624,4.01769 c -0.833319,2.887161 0.813458,5.870257 3.700619,6.703575 l 3.135193,0.904909 c 2.887162,0.83332 5.870258,-0.813458 6.703575,-3.700618 l 1.166327,-4.040915 c 1.273467,-0.04136 2.514559,-0.181052 3.746386,-0.428183 l 2.032036,3.68098 c 1.452288,2.63078 4.731117,3.577144 7.361897,2.12486 l 2.866257,-1.562756 c 2.630778,-1.452288 3.58385,-4.754342 2.131563,-7.38512 l -2.048556,-3.710906 c 0.845879,-0.906211 1.608449,-1.885698 2.305504,-2.932206 l 4.110586,1.186436 c 2.88716,0.833319 5.870252,-0.813458 6.703575,-3.700619 l 0.904909,-3.135193 c 0.833319,-2.887161 -0.806754,-5.893479 -3.693916,-6.726798 l -4.203481,-1.213248 c -0.04767,-1.222783 -0.207661,-2.416436 -0.445177,-3.600342 l 3.86054,-2.131159 c 2.630779,-1.452285 3.577146,-4.73112 2.12486,-7.361897 L 60.53355,17.022464 c -1.452288,-2.630778 -4.731119,-3.577146 -7.361897,-2.12486 l -3.920393,2.164201 c -0.871879,-0.814654 -1.797442,-1.564861 -2.799567,-2.242063 l 1.24006,-4.296374 C 48.525072,7.6362068 46.878295,4.6531128 43.991134,3.8197928 Z M 36.694244,23.173759 c 5.897315,1.702136 9.301622,7.868955 7.599484,13.766267 -1.702139,5.897315 -7.868956,9.301625 -13.766269,7.599487 -5.897314,-1.702138 -9.301624,-7.868957 -7.599485,-13.766272 1.702138,-5.897312 7.868955,-9.301621 13.76627,-7.599482 z"
         style="fill:url(#linearGradient1857);fill-opacity:1;stroke:#593a28;stroke-width:3.86746;stroke-linecap:round;stroke-linejoin:round;stroke-miterlimit:4;stroke-opacity:1" />
    </g>
    <use
       x="0"
       y="0"
       xlink:href="#g2547"
       id="use2551"
       transform="matrix(0.542093,0,0,0.542093,24.141599,46.073052)"
       width="90"
       height="90" />
  </g>
</svg>
