<?xml version="1.0" encoding="UTF-8" standalone="no"?>
<!-- Generator: Adobe Illustrator 16.0.0, SVG Export Plug-In . SVG Version: 6.00 Build 0)  -->

<svg
   version="1.1"
   id="Capa_1"
   x="0px"
   y="0px"
   width="971.986px"
   height="971.986px"
   viewBox="0 0 971.986 971.986"
   style="enable-background:new 0 0 971.986 971.986;"
   xml:space="preserve"
   sodipodi:docname="io.github.t00m.MiAZ-filter-custom-symbolic.svg"
   inkscape:version="1.4 (e7c3feb100, 2024-10-09)"
   xmlns:inkscape="http://www.inkscape.org/namespaces/inkscape"
   xmlns:sodipodi="http://sodipodi.sourceforge.net/DTD/sodipodi-0.dtd"
   xmlns="http://www.w3.org/2000/svg"
   xmlns:svg="http://www.w3.org/2000/svg"><defs
   id="defs16" /><sodipodi:namedview
   id="namedview16"
   pagecolor="#ffffff"
   bordercolor="#000000"
   borderopacity="0.25"
   inkscape:showpageshadow="2"
   inkscape:pageopacity="0.0"
   inkscape:pagecheckerboard="0"
   inkscape:deskcolor="#d1d1d1"
   inkscape:zoom="0.58198926"
   inkscape:cx="361.69053"
   inkscape:cy="383.16858"
   inkscape:window-width="1920"
   inkscape:window-height="1011"
   inkscape:window-x="0"
   inkscape:window-y="0"
   inkscape:window-maximized="1"
   inkscape:current-layer="g1" />
<g
   id="g1">
	<path
   d="m 370.216,459.3 c 10.2,11.1 15.8,25.6 15.8,40.6 v 442 c 0,26.601 32.1,40.101 51.1,21.4 L 560.416,822 c 16.5,-19.8 25.6,-29.601 25.6,-49.2 V 500 c 0,-15 5.7,-29.5 15.8,-40.601 L 955.615,75.5 C 982.115,46.7 961.716,0 922.515,0 h -873 c -39.2,0 -59.7,46.6 -33.1,75.5 z"
   id="path1"
   sodipodi:nodetypes="cssccssccsscc" />
</g>
<g
   id="g2">
</g>
<g
   id="g3">
</g>
<g
   id="g4">
</g>
<g
   id="g5">
</g>
<g
   id="g6">
</g>
<g
   id="g7">
</g>
<g
   id="g8">
</g>
<g
   id="g9">
</g>
<g
   id="g10">
</g>
<g
   id="g11">
</g>
<g
   id="g12">
</g>
<g
   id="g13">
</g>
<g
   id="g14">
</g>
<g
   id="g15">
</g>
<g
   id="g16">
</g>
<path
   d="M 764.17486,444.50924 V 602.27183 H 618.62544 v 52.58752 h 145.54942 v 157.76259 h 48.51648 V 654.85935 H 958.24079 V 602.27183 H 812.69134 V 444.50924 Z"
   fill="#2e3436"
   id="path1-6"
   style="fill:#000000;stroke-width:25.2554"
   sodipodi:nodetypes="ccccccccccccc" /></svg>
